%TF.GenerationSoftware,KiCad,Pcbnew,(5.99.0-11661-g1332208ab1)*%
%TF.CreationDate,2021-08-31T19:17:50-04:00*%
%TF.ProjectId,bongocat,626f6e67-6f63-4617-942e-6b696361645f,rev?*%
%TF.SameCoordinates,Original*%
%TF.FileFunction,Legend,Top*%
%TF.FilePolarity,Positive*%
%FSLAX46Y46*%
G04 Gerber Fmt 4.6, Leading zero omitted, Abs format (unit mm)*
G04 Created by KiCad (PCBNEW (5.99.0-11661-g1332208ab1)) date 2021-08-31 19:17:50*
%MOMM*%
%LPD*%
G01*
G04 APERTURE LIST*
G04 Aperture macros list*
%AMHorizOval*
0 Thick line with rounded ends*
0 $1 width*
0 $2 $3 position (X,Y) of the first rounded end (center of the circle)*
0 $4 $5 position (X,Y) of the second rounded end (center of the circle)*
0 Add line between two ends*
20,1,$1,$2,$3,$4,$5,0*
0 Add two circle primitives to create the rounded ends*
1,1,$1,$2,$3*
1,1,$1,$4,$5*%
G04 Aperture macros list end*
%ADD10HorizOval,2.000000X0.243593X-0.056238X-0.243593X0.056238X0*%
G04 APERTURE END LIST*
%TO.C,G\u002A\u002A\u002A*%
G36*
X153625351Y-65639330D02*
G01*
X153744200Y-65664090D01*
X153820501Y-65696256D01*
X153829317Y-65705001D01*
X153890243Y-65751036D01*
X153951598Y-65776644D01*
X154042154Y-65838563D01*
X154142829Y-65956376D01*
X154233917Y-66101990D01*
X154295711Y-66247316D01*
X154303973Y-66278938D01*
X154338961Y-66407001D01*
X154388001Y-66554551D01*
X154394850Y-66573095D01*
X154452710Y-66825099D01*
X154441978Y-67069456D01*
X154366845Y-67286615D01*
X154231504Y-67457026D01*
X154199971Y-67482036D01*
X153951534Y-67618457D01*
X153700584Y-67667590D01*
X153452212Y-67628986D01*
X153302761Y-67561370D01*
X153172019Y-67479417D01*
X153060686Y-67388380D01*
X152943088Y-67264968D01*
X152836011Y-67137980D01*
X152771186Y-67005603D01*
X152733490Y-66819105D01*
X152724579Y-66609771D01*
X152746108Y-66408885D01*
X152789924Y-66267399D01*
X152948117Y-65994925D01*
X153133106Y-65795322D01*
X153338411Y-65673462D01*
X153557548Y-65634220D01*
X153625351Y-65639330D01*
G37*
G36*
X181780001Y-70422416D02*
G01*
X181932990Y-70526113D01*
X181961339Y-70555497D01*
X182045960Y-70676293D01*
X182127928Y-70835170D01*
X182196066Y-71004199D01*
X182239193Y-71155457D01*
X182246134Y-71261016D01*
X182245271Y-71264831D01*
X182176951Y-71403190D01*
X182058287Y-71536703D01*
X181920586Y-71634046D01*
X181849921Y-71660413D01*
X181763118Y-71666194D01*
X181681357Y-71630447D01*
X181576857Y-71539857D01*
X181556671Y-71519884D01*
X181452891Y-71396596D01*
X181345918Y-71238331D01*
X181250207Y-71070617D01*
X181180215Y-70918980D01*
X181150395Y-70808947D01*
X181150175Y-70802037D01*
X181183141Y-70689780D01*
X181265392Y-70561343D01*
X181371962Y-70449833D01*
X181456720Y-70395564D01*
X181610946Y-70375636D01*
X181780001Y-70422416D01*
G37*
G36*
X177434685Y-70401737D02*
G01*
X177597309Y-70415165D01*
X177704370Y-70440317D01*
X177789334Y-70492999D01*
X177885667Y-70589019D01*
X177926796Y-70634170D01*
X178029729Y-70763036D01*
X178099413Y-70879720D01*
X178120000Y-70948012D01*
X178134780Y-71061211D01*
X178170342Y-71192868D01*
X178170554Y-71193475D01*
X178193792Y-71371801D01*
X178164550Y-71588422D01*
X178091665Y-71816956D01*
X177983977Y-72031023D01*
X177850323Y-72204243D01*
X177823359Y-72229792D01*
X177626920Y-72350928D01*
X177380038Y-72421040D01*
X177107491Y-72436901D01*
X176834057Y-72395286D01*
X176750851Y-72369455D01*
X176556946Y-72269605D01*
X176391290Y-72126980D01*
X176275602Y-71963672D01*
X176235337Y-71845059D01*
X176227430Y-71661473D01*
X176247983Y-71433997D01*
X176290923Y-71200906D01*
X176350178Y-71000470D01*
X176380248Y-70931710D01*
X176545701Y-70700601D01*
X176770221Y-70531921D01*
X177045371Y-70429912D01*
X177362713Y-70398813D01*
X177434685Y-70401737D01*
G37*
G36*
X154830447Y-64420868D02*
G01*
X155075776Y-64487009D01*
X155255888Y-64590325D01*
X155364915Y-64723617D01*
X155396989Y-64879688D01*
X155346243Y-65051340D01*
X155345527Y-65052683D01*
X155273231Y-65126701D01*
X155149876Y-65205503D01*
X155010507Y-65270876D01*
X154890168Y-65304607D01*
X154858947Y-65305559D01*
X154780707Y-65298317D01*
X154646084Y-65285478D01*
X154518209Y-65273117D01*
X154299590Y-65232930D01*
X154143259Y-65152991D01*
X154026136Y-65019153D01*
X153984293Y-64945807D01*
X153945621Y-64847445D01*
X153956568Y-64761644D01*
X153989783Y-64689893D01*
X154117886Y-64528451D01*
X154303412Y-64431012D01*
X154548670Y-64396838D01*
X154830447Y-64420868D01*
G37*
G36*
X152751866Y-63661311D02*
G01*
X152927849Y-63772814D01*
X153083080Y-63935861D01*
X153203629Y-64131805D01*
X153275566Y-64341998D01*
X153284960Y-64547792D01*
X153280924Y-64572916D01*
X153212608Y-64736687D01*
X153088508Y-64869532D01*
X152931693Y-64957198D01*
X152765237Y-64985430D01*
X152652638Y-64961068D01*
X152560061Y-64898001D01*
X152440185Y-64786007D01*
X152315638Y-64649980D01*
X152209054Y-64514815D01*
X152143063Y-64405408D01*
X152139468Y-64396582D01*
X152094792Y-64182422D01*
X152118459Y-63981630D01*
X152201370Y-63810651D01*
X152334428Y-63685932D01*
X152508535Y-63623920D01*
X152569061Y-63620000D01*
X152751866Y-63661311D01*
G37*
G36*
X149741740Y-67537182D02*
G01*
X149747578Y-67078139D01*
X149749788Y-66933736D01*
X149758477Y-66444610D01*
X149768186Y-66036118D01*
X149779563Y-65699771D01*
X149793251Y-65427081D01*
X149809897Y-65209559D01*
X149830146Y-65038718D01*
X149854644Y-64906070D01*
X149884037Y-64803124D01*
X149917895Y-64723499D01*
X149951730Y-64629706D01*
X149957467Y-64589815D01*
X149977103Y-64511809D01*
X150020109Y-64413966D01*
X150076176Y-64279499D01*
X150114146Y-64150237D01*
X150163578Y-63998460D01*
X150251055Y-63797219D01*
X150363839Y-63570285D01*
X150489193Y-63341434D01*
X150614377Y-63134437D01*
X150726654Y-62973070D01*
X150776282Y-62914480D01*
X150924428Y-62775566D01*
X151124353Y-62610838D01*
X151350727Y-62439164D01*
X151578216Y-62279414D01*
X151781490Y-62150456D01*
X151862847Y-62105125D01*
X151973209Y-62051356D01*
X152085224Y-62007441D01*
X152223806Y-61965272D01*
X152413869Y-61916743D01*
X152519473Y-61891465D01*
X152608655Y-61881132D01*
X152768483Y-61873066D01*
X152980497Y-61867798D01*
X153226237Y-61865855D01*
X153388421Y-61866562D01*
X153771653Y-61876705D01*
X154084014Y-61902023D01*
X154343053Y-61946522D01*
X154566319Y-62014206D01*
X154771362Y-62109081D01*
X154961642Y-62225607D01*
X155121280Y-62328157D01*
X155283712Y-62424763D01*
X155371403Y-62472500D01*
X155489530Y-62546541D01*
X155642325Y-62661008D01*
X155800838Y-62793907D01*
X155834602Y-62824350D01*
X156018515Y-62978456D01*
X156164925Y-63063544D01*
X156287857Y-63083310D01*
X156401339Y-63041452D01*
X156467480Y-62991165D01*
X156657868Y-62827960D01*
X156814102Y-62702222D01*
X156925799Y-62621950D01*
X156981428Y-62595088D01*
X157036874Y-62569779D01*
X157145006Y-62502165D01*
X157288203Y-62404710D01*
X157448843Y-62289878D01*
X157609307Y-62170135D01*
X157751974Y-62057947D01*
X157813944Y-62006159D01*
X157956268Y-61890417D01*
X158106549Y-61778080D01*
X158149319Y-61748421D01*
X158283423Y-61655659D01*
X158408131Y-61565566D01*
X158431605Y-61547895D01*
X158556521Y-61454950D01*
X158675026Y-61369649D01*
X158778111Y-61289752D01*
X158911241Y-61177128D01*
X159007277Y-61091140D01*
X159119757Y-60992288D01*
X159207551Y-60923761D01*
X159247640Y-60901754D01*
X159301857Y-60872582D01*
X159355050Y-60823772D01*
X159429814Y-60753944D01*
X159531480Y-60682066D01*
X159683468Y-60592110D01*
X159738421Y-60561395D01*
X159842506Y-60496591D01*
X159988974Y-60396606D01*
X160156733Y-60276885D01*
X160324692Y-60152873D01*
X160471758Y-60040016D01*
X160576839Y-59953760D01*
X160607462Y-59924996D01*
X160703787Y-59843769D01*
X160852176Y-59741643D01*
X161033091Y-59629611D01*
X161226991Y-59518666D01*
X161414337Y-59419800D01*
X161575590Y-59344007D01*
X161691208Y-59302279D01*
X161722745Y-59297544D01*
X161787724Y-59272704D01*
X161887702Y-59213154D01*
X161989304Y-59141349D01*
X162059155Y-59079744D01*
X162070467Y-59063596D01*
X162121508Y-59030658D01*
X162129142Y-59030175D01*
X162190833Y-59006062D01*
X162288766Y-58946289D01*
X162314815Y-58928041D01*
X162424446Y-58859834D01*
X162584200Y-58773163D01*
X162762446Y-58685050D01*
X162790877Y-58671813D01*
X162946726Y-58596941D01*
X163067758Y-58533115D01*
X163133787Y-58491181D01*
X163139941Y-58484298D01*
X163190565Y-58458519D01*
X163261994Y-58450877D01*
X163342386Y-58432032D01*
X163482724Y-58380682D01*
X163663455Y-58304603D01*
X163865026Y-58211570D01*
X163871000Y-58208691D01*
X164155927Y-58072101D01*
X164372180Y-57970915D01*
X164530694Y-57900475D01*
X164642404Y-57856122D01*
X164718246Y-57833195D01*
X164766824Y-57827017D01*
X164843539Y-57803074D01*
X164861391Y-57785031D01*
X164917571Y-57754569D01*
X165030549Y-57725079D01*
X165097968Y-57713757D01*
X165554721Y-57618743D01*
X165942195Y-57469834D01*
X166262937Y-57265893D01*
X166414752Y-57126809D01*
X166517907Y-57008031D01*
X166632538Y-56858896D01*
X166745108Y-56699384D01*
X166842081Y-56549474D01*
X166909918Y-56429145D01*
X166935087Y-56358860D01*
X166964493Y-56310038D01*
X167036309Y-56232503D01*
X167046491Y-56222807D01*
X167122017Y-56140667D01*
X167157507Y-56080043D01*
X167157894Y-56076179D01*
X167185393Y-56028509D01*
X167257472Y-55933457D01*
X167358505Y-55809354D01*
X167472865Y-55674531D01*
X167584927Y-55547316D01*
X167679064Y-55446042D01*
X167739649Y-55389037D01*
X167748333Y-55383567D01*
X167779697Y-55332250D01*
X167781754Y-55311682D01*
X167813126Y-55257608D01*
X167895436Y-55164271D01*
X168010974Y-55049245D01*
X168142033Y-54930104D01*
X168270901Y-54824422D01*
X168278820Y-54818407D01*
X168372100Y-54744861D01*
X168501966Y-54638757D01*
X168644799Y-54519839D01*
X168776981Y-54407850D01*
X168874891Y-54322535D01*
X168902981Y-54296660D01*
X169010847Y-54224372D01*
X169095182Y-54191566D01*
X169179132Y-54157153D01*
X169207719Y-54123590D01*
X169246607Y-54094927D01*
X169344913Y-54084365D01*
X169475104Y-54090462D01*
X169609645Y-54111773D01*
X169721001Y-54146857D01*
X169729527Y-54150931D01*
X169830364Y-54220350D01*
X169956396Y-54332884D01*
X170059443Y-54441092D01*
X170194497Y-54594747D01*
X170352117Y-54773381D01*
X170481847Y-54919898D01*
X170620905Y-55088488D01*
X170773679Y-55291945D01*
X170908745Y-55488292D01*
X170917411Y-55501758D01*
X171041929Y-55685650D01*
X171178392Y-55870559D01*
X171299912Y-56020261D01*
X171314335Y-56036495D01*
X171421439Y-56159177D01*
X171507595Y-56265083D01*
X171547193Y-56320563D01*
X171591449Y-56389730D01*
X171672200Y-56511009D01*
X171775266Y-56663198D01*
X171825701Y-56736928D01*
X171927954Y-56889037D01*
X172007534Y-57013345D01*
X172053127Y-57091879D01*
X172059649Y-57108589D01*
X172089589Y-57152264D01*
X172168517Y-57238771D01*
X172280091Y-57350322D01*
X172293596Y-57363300D01*
X172536036Y-57563689D01*
X172795247Y-57723365D01*
X173045002Y-57827106D01*
X173129122Y-57848141D01*
X173246853Y-57877565D01*
X173419548Y-57927996D01*
X173618319Y-57990251D01*
X173814275Y-58055146D01*
X173978530Y-58113498D01*
X174042631Y-58138540D01*
X174139029Y-58174875D01*
X174276171Y-58222773D01*
X174332280Y-58241564D01*
X174980185Y-58469432D01*
X175576036Y-58707081D01*
X176053061Y-58923605D01*
X176371035Y-59077176D01*
X176629435Y-59199259D01*
X176848079Y-59298854D01*
X177046789Y-59384963D01*
X177245384Y-59466586D01*
X177273333Y-59477779D01*
X177446119Y-59547878D01*
X177617479Y-59619096D01*
X177696666Y-59652845D01*
X177833604Y-59708638D01*
X178013272Y-59777313D01*
X178175701Y-59836454D01*
X178322994Y-59892934D01*
X178430212Y-59942362D01*
X178476094Y-59974825D01*
X178476491Y-59976707D01*
X178514452Y-60002785D01*
X178580467Y-60010526D01*
X178675809Y-60023578D01*
X178717865Y-60043947D01*
X178783680Y-60076857D01*
X178791130Y-60077368D01*
X178853672Y-60099462D01*
X178953095Y-60153714D01*
X179061053Y-60222079D01*
X179149204Y-60286515D01*
X179189202Y-60328975D01*
X179189473Y-60330956D01*
X179228364Y-60359324D01*
X179324126Y-60387928D01*
X179345930Y-60392330D01*
X179456658Y-60422083D01*
X179523056Y-60456549D01*
X179526806Y-60461192D01*
X179585066Y-60490759D01*
X179671138Y-60501151D01*
X179762524Y-60516077D01*
X179913478Y-60555980D01*
X180100269Y-60614147D01*
X180236666Y-60661075D01*
X180443317Y-60733244D01*
X180638677Y-60798352D01*
X180795138Y-60847345D01*
X180860526Y-60865662D01*
X181014123Y-60910850D01*
X181156583Y-60962375D01*
X181172456Y-60969100D01*
X181302222Y-61017335D01*
X181461488Y-61065937D01*
X181506666Y-61077852D01*
X181620729Y-61107853D01*
X181715468Y-61138082D01*
X181817740Y-61178982D01*
X181954402Y-61240992D01*
X182085965Y-61303051D01*
X182284515Y-61401404D01*
X182490840Y-61510579D01*
X182686595Y-61620081D01*
X182853436Y-61719413D01*
X182973016Y-61798081D01*
X183021754Y-61838430D01*
X183070437Y-61869632D01*
X183176240Y-61926823D01*
X183311403Y-61995202D01*
X183483623Y-62084187D01*
X183690416Y-62197148D01*
X183890412Y-62311423D01*
X183912982Y-62324736D01*
X184119074Y-62443901D01*
X184346348Y-62570848D01*
X184547760Y-62679326D01*
X184559122Y-62685262D01*
X184813841Y-62821505D01*
X185090004Y-62976635D01*
X185410714Y-63163715D01*
X185517994Y-63227382D01*
X185623948Y-63281968D01*
X185779488Y-63352313D01*
X185948444Y-63422183D01*
X186120648Y-63490361D01*
X186278369Y-63553615D01*
X186386140Y-63597706D01*
X186642804Y-63698287D01*
X186835812Y-63758832D01*
X186959776Y-63777829D01*
X186997804Y-63769285D01*
X187077553Y-63734430D01*
X187099122Y-63730366D01*
X187207894Y-63714312D01*
X187341692Y-63684968D01*
X187464468Y-63651315D01*
X187540173Y-63622335D01*
X187544737Y-63619335D01*
X187615951Y-63587946D01*
X187730727Y-63555897D01*
X187745263Y-63552718D01*
X187858434Y-63517107D01*
X188019936Y-63451978D01*
X188199476Y-63369784D01*
X188245589Y-63347046D01*
X188416518Y-63267562D01*
X188569506Y-63207402D01*
X188678468Y-63176484D01*
X188699714Y-63174386D01*
X188794458Y-63158098D01*
X188837017Y-63129824D01*
X188900934Y-63090099D01*
X188936356Y-63085263D01*
X189011116Y-63068014D01*
X189139470Y-63022689D01*
X189294260Y-62958922D01*
X189301358Y-62955797D01*
X189504223Y-62868049D01*
X189734217Y-62771244D01*
X189906491Y-62700574D01*
X190066146Y-62631994D01*
X190197038Y-62568114D01*
X190273315Y-62521654D01*
X190277305Y-62518111D01*
X190369015Y-62468396D01*
X190413218Y-62461403D01*
X190504107Y-62441998D01*
X190532579Y-62425217D01*
X190593228Y-62395757D01*
X190715409Y-62350568D01*
X190874975Y-62298449D01*
X190909122Y-62288007D01*
X191083837Y-62233924D01*
X191236551Y-62184408D01*
X191337554Y-62149126D01*
X191345693Y-62145947D01*
X191494663Y-62107724D01*
X191624290Y-62131458D01*
X191758337Y-62224431D01*
X191829798Y-62294298D01*
X191933405Y-62412822D01*
X192009693Y-62519493D01*
X192035706Y-62572807D01*
X192063638Y-62660951D01*
X192111618Y-62799501D01*
X192158579Y-62929298D01*
X192185431Y-63004527D01*
X192206678Y-63075791D01*
X192222744Y-63153720D01*
X192234054Y-63248945D01*
X192241033Y-63372096D01*
X192244106Y-63533804D01*
X192243699Y-63744700D01*
X192240237Y-64015413D01*
X192234143Y-64356575D01*
X192228060Y-64667193D01*
X192219508Y-65034223D01*
X192208955Y-65384445D01*
X192196976Y-65704805D01*
X192184145Y-65982248D01*
X192171036Y-66203717D01*
X192158224Y-66356159D01*
X192151646Y-66405088D01*
X192113295Y-66600374D01*
X192066998Y-66804119D01*
X192018603Y-66993740D01*
X191973961Y-67146654D01*
X191938919Y-67240278D01*
X191932358Y-67251754D01*
X191900371Y-67324974D01*
X191870443Y-67427006D01*
X191819263Y-67551922D01*
X191737303Y-67678531D01*
X191730615Y-67686653D01*
X191659638Y-67782961D01*
X191623334Y-67855602D01*
X191622105Y-67864384D01*
X191595855Y-67936257D01*
X191563181Y-67983509D01*
X191486540Y-68122370D01*
X191414889Y-68349773D01*
X191348325Y-68665266D01*
X191286945Y-69068404D01*
X191241238Y-69457544D01*
X191199371Y-69844621D01*
X191162791Y-70154722D01*
X191129324Y-70399678D01*
X191096797Y-70591324D01*
X191063036Y-70741491D01*
X191025866Y-70862014D01*
X190983113Y-70964724D01*
X190953588Y-71023268D01*
X190927610Y-71105716D01*
X190900964Y-71242870D01*
X190884700Y-71361302D01*
X190873573Y-71512322D01*
X190884477Y-71637403D01*
X190925447Y-71760718D01*
X191004515Y-71906443D01*
X191129714Y-72098752D01*
X191129794Y-72098871D01*
X191197044Y-72208406D01*
X191293041Y-72377846D01*
X191406857Y-72587292D01*
X191527560Y-72816843D01*
X191576714Y-72912568D01*
X191687408Y-73126767D01*
X191786027Y-73311984D01*
X191864751Y-73453967D01*
X191915764Y-73538462D01*
X191929289Y-73555342D01*
X191970601Y-73613096D01*
X191998621Y-73682090D01*
X192036632Y-73772838D01*
X192104713Y-73909848D01*
X192183278Y-74054720D01*
X192265861Y-74210182D01*
X192331912Y-74351484D01*
X192365325Y-74442279D01*
X192399697Y-74541321D01*
X192461474Y-74687821D01*
X192537001Y-74849474D01*
X192614866Y-75023761D01*
X192703599Y-75246575D01*
X192788804Y-75480974D01*
X192823568Y-75584737D01*
X192966465Y-76011259D01*
X193097379Y-76369217D01*
X193223351Y-76677116D01*
X193317874Y-76884345D01*
X193384602Y-77033514D01*
X193431857Y-77157309D01*
X193449122Y-77227066D01*
X193476708Y-77305796D01*
X193496722Y-77324509D01*
X193526041Y-77385381D01*
X193520401Y-77416262D01*
X193517315Y-77471041D01*
X193530692Y-77478596D01*
X193565575Y-77516412D01*
X193610481Y-77610648D01*
X193623545Y-77645702D01*
X193737303Y-77929818D01*
X193883535Y-78215929D01*
X193969544Y-78363538D01*
X194058845Y-78535752D01*
X194147789Y-78745360D01*
X194208648Y-78920556D01*
X194275876Y-79138716D01*
X194353313Y-79381619D01*
X194411381Y-79558187D01*
X194465241Y-79743430D01*
X194503734Y-79923110D01*
X194518595Y-80058590D01*
X194518596Y-80059502D01*
X194526999Y-80179872D01*
X194558175Y-80233096D01*
X194596579Y-80241598D01*
X194675217Y-80256260D01*
X194809386Y-80294695D01*
X194971355Y-80348887D01*
X194986491Y-80354315D01*
X195202445Y-80418406D01*
X195445435Y-80470225D01*
X195622902Y-80494343D01*
X195784091Y-80512609D01*
X195907507Y-80535204D01*
X195968919Y-80557566D01*
X195970883Y-80559872D01*
X196028834Y-80589166D01*
X196103761Y-80597895D01*
X196223079Y-80615709D01*
X196290517Y-80641735D01*
X196371123Y-80668627D01*
X196511565Y-80698704D01*
X196683039Y-80725899D01*
X196702105Y-80728397D01*
X196926175Y-80761959D01*
X197170567Y-80805880D01*
X197348245Y-80843092D01*
X197577338Y-80894371D01*
X197807901Y-80942370D01*
X198075220Y-80994309D01*
X198217193Y-81020945D01*
X198327260Y-81042571D01*
X198478294Y-81073567D01*
X198551403Y-81088934D01*
X198728092Y-81124042D01*
X198932901Y-81161442D01*
X199040504Y-81179726D01*
X199210753Y-81210988D01*
X199365928Y-81245176D01*
X199441556Y-81265617D01*
X199559163Y-81300758D01*
X199721301Y-81347017D01*
X199843684Y-81380901D01*
X200003321Y-81424980D01*
X200165858Y-81471196D01*
X200355913Y-81526679D01*
X200598103Y-81598561D01*
X200698263Y-81628472D01*
X200829487Y-81659390D01*
X200996201Y-81688246D01*
X201067196Y-81697727D01*
X201201171Y-81719968D01*
X201294344Y-81747296D01*
X201318142Y-81762852D01*
X201375741Y-81791456D01*
X201461665Y-81801579D01*
X201561106Y-81812678D01*
X201716502Y-81841614D01*
X201897857Y-81882650D01*
X201938070Y-81892684D01*
X202150595Y-81946233D01*
X202311292Y-81985133D01*
X202454563Y-82017255D01*
X202614810Y-82050472D01*
X202717894Y-82071113D01*
X202869163Y-82101244D01*
X203062496Y-82139786D01*
X203230351Y-82173270D01*
X203423849Y-82217167D01*
X203614770Y-82269015D01*
X203742807Y-82310887D01*
X203882542Y-82361982D01*
X203999972Y-82402525D01*
X204032456Y-82412816D01*
X204115385Y-82447673D01*
X204143859Y-82469457D01*
X204196899Y-82495337D01*
X204307940Y-82528400D01*
X204388947Y-82547518D01*
X204568168Y-82590169D01*
X204768952Y-82643697D01*
X204856842Y-82669154D01*
X205038823Y-82719006D01*
X205263484Y-82771182D01*
X205545166Y-82828755D01*
X205898208Y-82894799D01*
X205970877Y-82907902D01*
X206320094Y-82980065D01*
X206705555Y-83075754D01*
X206995789Y-83157712D01*
X207336613Y-83257055D01*
X207612610Y-83332098D01*
X207817803Y-83381319D01*
X207946218Y-83403200D01*
X207965000Y-83404214D01*
X208005869Y-83407698D01*
X208033783Y-83426671D01*
X208051209Y-83475425D01*
X208060618Y-83568252D01*
X208064478Y-83719446D01*
X208065259Y-83943299D01*
X208065263Y-83984561D01*
X208066583Y-84231925D01*
X208061645Y-84400861D01*
X208037096Y-84501778D01*
X207979588Y-84545090D01*
X207875767Y-84541206D01*
X207712286Y-84500540D01*
X207485965Y-84436320D01*
X207299590Y-84382700D01*
X207143548Y-84334346D01*
X207039342Y-84298100D01*
X207010794Y-84285109D01*
X206943847Y-84266119D01*
X206813580Y-84246345D01*
X206645681Y-84229520D01*
X206609741Y-84226830D01*
X206320388Y-84194834D01*
X206017833Y-84141585D01*
X205729268Y-84073311D01*
X205481885Y-83996242D01*
X205337823Y-83935457D01*
X205246809Y-83904711D01*
X205113029Y-83875027D01*
X205070455Y-83867912D01*
X204942119Y-83842568D01*
X204850818Y-83814214D01*
X204834561Y-83805377D01*
X204766555Y-83775958D01*
X204647160Y-83740735D01*
X204589473Y-83726789D01*
X204445537Y-83690599D01*
X204257025Y-83638200D01*
X204048969Y-83577143D01*
X203846401Y-83514976D01*
X203674356Y-83459248D01*
X203557865Y-83417509D01*
X203542280Y-83410998D01*
X203351469Y-83332475D01*
X203195556Y-83284116D01*
X203031433Y-83252977D01*
X203002210Y-83248822D01*
X202841078Y-83222187D01*
X202693528Y-83190706D01*
X202651052Y-83179344D01*
X202503712Y-83139529D01*
X202295004Y-83087937D01*
X202050895Y-83030571D01*
X201797349Y-82973431D01*
X201560330Y-82922519D01*
X201403333Y-82890935D01*
X201090380Y-82827786D01*
X200783046Y-82760417D01*
X200510543Y-82695445D01*
X200333859Y-82648679D01*
X200164220Y-82602633D01*
X199990786Y-82558513D01*
X199977368Y-82555269D01*
X199839590Y-82517367D01*
X199726221Y-82478277D01*
X199710000Y-82471275D01*
X199614478Y-82437611D01*
X199473247Y-82398913D01*
X199398070Y-82381337D01*
X199228960Y-82343739D01*
X199025766Y-82297762D01*
X198885614Y-82265612D01*
X198696533Y-82221973D01*
X198508139Y-82178600D01*
X198395438Y-82152726D01*
X198242509Y-82122437D01*
X198047663Y-82090126D01*
X197885365Y-82067105D01*
X197710593Y-82040436D01*
X197556680Y-82009565D01*
X197462032Y-81982855D01*
X197316894Y-81939205D01*
X197094363Y-81890198D01*
X196805837Y-81838158D01*
X196568421Y-81800827D01*
X196371205Y-81765190D01*
X196141185Y-81714629D01*
X195944561Y-81664479D01*
X195755104Y-81615100D01*
X195573366Y-81573457D01*
X195437210Y-81548193D01*
X195432105Y-81547492D01*
X195307585Y-81523978D01*
X195220808Y-81495333D01*
X195209298Y-81488281D01*
X195141823Y-81461752D01*
X195019745Y-81433701D01*
X194941929Y-81420773D01*
X194804387Y-81396965D01*
X194702799Y-81372194D01*
X194674561Y-81360925D01*
X194609473Y-81338075D01*
X194486024Y-81307040D01*
X194362631Y-81280921D01*
X194181622Y-81243650D01*
X194005233Y-81204348D01*
X193917017Y-81182983D01*
X193775558Y-81147992D01*
X193592564Y-81104335D01*
X193449122Y-81071010D01*
X193163043Y-81005441D01*
X192875753Y-80939476D01*
X192614023Y-80879269D01*
X192404620Y-80830974D01*
X192357368Y-80820043D01*
X192222467Y-80790727D01*
X192039279Y-80753348D01*
X191847173Y-80715937D01*
X191844912Y-80715508D01*
X191627255Y-80668543D01*
X191394360Y-80609444D01*
X191221052Y-80558570D01*
X191023141Y-80495575D01*
X190814840Y-80430822D01*
X190686315Y-80391843D01*
X190429476Y-80313315D01*
X190203088Y-80240344D01*
X190028023Y-80179789D01*
X189951052Y-80150093D01*
X189850412Y-80119643D01*
X189711037Y-80090339D01*
X189672777Y-80084087D01*
X189550554Y-80057628D01*
X189470508Y-80025620D01*
X189458480Y-80014719D01*
X189399247Y-79983587D01*
X189321633Y-79974035D01*
X189198432Y-79955969D01*
X189126113Y-79929177D01*
X189036889Y-79897586D01*
X188895514Y-79863559D01*
X188783691Y-79842977D01*
X188592374Y-79808071D01*
X188373558Y-79761965D01*
X188235438Y-79729529D01*
X188046909Y-79683823D01*
X187858926Y-79640197D01*
X187745263Y-79615184D01*
X187523417Y-79559063D01*
X187299142Y-79479952D01*
X187136949Y-79411793D01*
X187027399Y-79369642D01*
X186950524Y-79350308D01*
X186946959Y-79350175D01*
X186868369Y-79330368D01*
X186820009Y-79308226D01*
X186736779Y-79274100D01*
X186600339Y-79228629D01*
X186475263Y-79191642D01*
X186202960Y-79112486D01*
X185974281Y-79039763D01*
X185805095Y-78978719D01*
X185729464Y-78945172D01*
X185640038Y-78910623D01*
X185602514Y-78904561D01*
X185530658Y-78887362D01*
X185422516Y-78845509D01*
X185412524Y-78841045D01*
X185228150Y-78775007D01*
X184971854Y-78708878D01*
X184660727Y-78646963D01*
X184603684Y-78637179D01*
X184381089Y-78593277D01*
X184148069Y-78536791D01*
X183946565Y-78478207D01*
X183890701Y-78458947D01*
X183572952Y-78364662D01*
X183243919Y-78304584D01*
X183155438Y-78295593D01*
X183005978Y-78280310D01*
X182887197Y-78262182D01*
X182843508Y-78251357D01*
X182754498Y-78230920D01*
X182629312Y-78214907D01*
X182620701Y-78214191D01*
X182488606Y-78199184D01*
X182315208Y-78173869D01*
X182197368Y-78154127D01*
X182024136Y-78123664D01*
X181804300Y-78085540D01*
X181579140Y-78046903D01*
X181528947Y-78038357D01*
X181299626Y-77997294D01*
X181057313Y-77950580D01*
X180848137Y-77907166D01*
X180815965Y-77900033D01*
X180614100Y-77856233D01*
X180405519Y-77813489D01*
X180263045Y-77786193D01*
X180119757Y-77756509D01*
X180010748Y-77727211D01*
X179973396Y-77712156D01*
X179896878Y-77687097D01*
X179744479Y-77656241D01*
X179529072Y-77621884D01*
X179278596Y-77588194D01*
X178998014Y-77543680D01*
X178802421Y-77490891D01*
X178766140Y-77476019D01*
X178679333Y-77450612D01*
X178533904Y-77421445D01*
X178359827Y-77394451D01*
X178342807Y-77392204D01*
X177756169Y-77286397D01*
X177295614Y-77167672D01*
X177162742Y-77131269D01*
X176990464Y-77087558D01*
X176765452Y-77033295D01*
X176474380Y-76965239D01*
X176270701Y-76918321D01*
X176023539Y-76861338D01*
X175841928Y-76818503D01*
X175704469Y-76784397D01*
X175589766Y-76753598D01*
X175476422Y-76720683D01*
X175401754Y-76698146D01*
X175213195Y-76640861D01*
X175014995Y-76580753D01*
X174933859Y-76556186D01*
X174756713Y-76509931D01*
X174551455Y-76466558D01*
X174444759Y-76448195D01*
X174274380Y-76418773D01*
X174119131Y-76386221D01*
X174043706Y-76366608D01*
X173602565Y-76236502D01*
X173181727Y-76121931D01*
X172735654Y-76010706D01*
X172549824Y-75966727D01*
X172431598Y-75937278D01*
X172260950Y-75892601D01*
X172071286Y-75841468D01*
X172037368Y-75832163D01*
X171879039Y-75788946D01*
X171745647Y-75753820D01*
X171614311Y-75721278D01*
X171462148Y-75685815D01*
X171266279Y-75641924D01*
X171034737Y-75590889D01*
X170640763Y-75503824D01*
X170326918Y-75433280D01*
X170086079Y-75377598D01*
X169911126Y-75335119D01*
X169794938Y-75304183D01*
X169762645Y-75294454D01*
X169631970Y-75261242D01*
X169469428Y-75230388D01*
X169417294Y-75222576D01*
X169294785Y-75198472D01*
X169219310Y-75169534D01*
X169207719Y-75155346D01*
X169168329Y-75130334D01*
X169070668Y-75116598D01*
X169040614Y-75115779D01*
X168880889Y-75102884D01*
X168712496Y-75072797D01*
X168695263Y-75068511D01*
X168498975Y-75020273D01*
X168271151Y-74968229D01*
X168045330Y-74919697D01*
X167855047Y-74881996D01*
X167781754Y-74869178D01*
X167647245Y-74842624D01*
X167476383Y-74802599D01*
X167380701Y-74777812D01*
X167146692Y-74714733D01*
X166973141Y-74668644D01*
X166834537Y-74633032D01*
X166705369Y-74601385D01*
X166560129Y-74567190D01*
X166511754Y-74555957D01*
X166249717Y-74491619D01*
X166004721Y-74424897D01*
X165800526Y-74362602D01*
X165665087Y-74313345D01*
X165566862Y-74280222D01*
X165427355Y-74242665D01*
X165375438Y-74230494D01*
X165216407Y-74192685D01*
X165024501Y-74144046D01*
X164907544Y-74113011D01*
X164744932Y-74070152D01*
X164601661Y-74034602D01*
X164528772Y-74018251D01*
X164402978Y-73984581D01*
X164328245Y-73957102D01*
X164239997Y-73931462D01*
X164094893Y-73901950D01*
X163927193Y-73875374D01*
X163708021Y-73840176D01*
X163465176Y-73793540D01*
X163303333Y-73757725D01*
X163121139Y-73714037D01*
X162950559Y-73673245D01*
X162835438Y-73645825D01*
X162701514Y-73611095D01*
X162531323Y-73563152D01*
X162434386Y-73534379D01*
X162243736Y-73480361D01*
X162029478Y-73425220D01*
X161921929Y-73399860D01*
X161460283Y-73286734D01*
X161208947Y-73217146D01*
X161110383Y-73193371D01*
X160970440Y-73164480D01*
X160919298Y-73154828D01*
X160700550Y-73110262D01*
X160419516Y-73046154D01*
X160099457Y-72967948D01*
X159872105Y-72909680D01*
X159563309Y-72831844D01*
X159228596Y-72753335D01*
X158846804Y-72669345D01*
X158431553Y-72582224D01*
X158289500Y-72549430D01*
X158181550Y-72518180D01*
X158145338Y-72503107D01*
X158071353Y-72473863D01*
X157954408Y-72441945D01*
X157937118Y-72438050D01*
X157800503Y-72405191D01*
X157628252Y-72359935D01*
X157532631Y-72333368D01*
X157369535Y-72290198D01*
X157219739Y-72255927D01*
X157153859Y-72243882D01*
X157028531Y-72223071D01*
X156867202Y-72193367D01*
X156797368Y-72179727D01*
X156640975Y-72149111D01*
X156438769Y-72110327D01*
X156232580Y-72071393D01*
X156218070Y-72068681D01*
X156012913Y-72026353D01*
X155808667Y-71977650D01*
X155647372Y-71932644D01*
X155638772Y-71929891D01*
X155481074Y-71888894D01*
X155277219Y-71849413D01*
X155069917Y-71819659D01*
X155059473Y-71818491D01*
X154875215Y-71796941D01*
X154712953Y-71775678D01*
X154603287Y-71758756D01*
X154591579Y-71756501D01*
X154367838Y-71709480D01*
X154215662Y-71674080D01*
X154118901Y-71646120D01*
X154061409Y-71621423D01*
X154055037Y-71617656D01*
X154018529Y-71599067D01*
X153963245Y-71580712D01*
X153874326Y-71559245D01*
X153736911Y-71531319D01*
X153536141Y-71493587D01*
X153366140Y-71462493D01*
X153178528Y-71422339D01*
X152990205Y-71372667D01*
X152898245Y-71343578D01*
X152735013Y-71291662D01*
X152541749Y-71237411D01*
X152441491Y-71212092D01*
X152118562Y-71134114D01*
X151863496Y-71070452D01*
X151657138Y-71016169D01*
X151480334Y-70966327D01*
X151427719Y-70950763D01*
X151235499Y-70900886D01*
X151019799Y-70855753D01*
X150915263Y-70838209D01*
X150692606Y-70801938D01*
X150475012Y-70760289D01*
X150283329Y-70717871D01*
X150138410Y-70679293D01*
X150061629Y-70649511D01*
X149991893Y-70624533D01*
X149865071Y-70594689D01*
X149749700Y-70573431D01*
X149557197Y-70537768D01*
X149337540Y-70491104D01*
X149199649Y-70458599D01*
X149016595Y-70414360D01*
X148839149Y-70373757D01*
X148731754Y-70350907D01*
X148587607Y-70318255D01*
X148406501Y-70272009D01*
X148286140Y-70238784D01*
X148089193Y-70184710D01*
X147879383Y-70130668D01*
X147773684Y-70105113D01*
X147582603Y-70055094D01*
X147382449Y-69994456D01*
X147305789Y-69968406D01*
X147135973Y-69913047D01*
X146951971Y-69865471D01*
X146730264Y-69820414D01*
X146447337Y-69772613D01*
X146392280Y-69763964D01*
X146212518Y-69733831D01*
X146043986Y-69702074D01*
X145946666Y-69681008D01*
X145870781Y-69663540D01*
X145778299Y-69644492D01*
X145654631Y-69621193D01*
X145485194Y-69590973D01*
X145255399Y-69551158D01*
X144988596Y-69505540D01*
X144829061Y-69475872D01*
X144627112Y-69434956D01*
X144431579Y-69392774D01*
X144220993Y-69347980D01*
X143999950Y-69304613D01*
X143830000Y-69274392D01*
X143670398Y-69244498D01*
X143536117Y-69212586D01*
X143473508Y-69192254D01*
X143307505Y-69129063D01*
X143097739Y-69065721D01*
X142830235Y-68998466D01*
X142491018Y-68923539D01*
X142418750Y-68908425D01*
X142275982Y-68874490D01*
X142170305Y-68841463D01*
X142132815Y-68822544D01*
X142069739Y-68800440D01*
X141957797Y-68789406D01*
X141936265Y-68789123D01*
X141800515Y-68768330D01*
X141637238Y-68715380D01*
X141553780Y-68677906D01*
X141415708Y-68615200D01*
X141298932Y-68574780D01*
X141251528Y-68566502D01*
X141167135Y-68555999D01*
X141020839Y-68528354D01*
X140836936Y-68489055D01*
X140639726Y-68443593D01*
X140453504Y-68397458D01*
X140302570Y-68356138D01*
X140254925Y-68341337D01*
X140053700Y-68286904D01*
X139784884Y-68232145D01*
X139469896Y-68181241D01*
X139351579Y-68164961D01*
X139106475Y-68129480D01*
X138832267Y-68082999D01*
X138506751Y-68021614D01*
X138282105Y-67976919D01*
X138103684Y-67930722D01*
X137928485Y-67869503D01*
X137858772Y-67838552D01*
X137625157Y-67747212D01*
X137316708Y-67666532D01*
X136947419Y-67599949D01*
X136811579Y-67581273D01*
X136618397Y-67550029D01*
X136434001Y-67509183D01*
X136299122Y-67467858D01*
X136164727Y-67414361D01*
X136052293Y-67369429D01*
X136031754Y-67361180D01*
X135915101Y-67322634D01*
X135831228Y-67301218D01*
X135729992Y-67277981D01*
X135577699Y-67241547D01*
X135430175Y-67205436D01*
X135241700Y-67160667D01*
X135053757Y-67119014D01*
X134940000Y-67095899D01*
X134781267Y-67061905D01*
X134589681Y-67015389D01*
X134472105Y-66984286D01*
X134202657Y-66913185D01*
X133909179Y-66841111D01*
X133617517Y-66773965D01*
X133353515Y-66717647D01*
X133143019Y-66678057D01*
X133101842Y-66671473D01*
X132934737Y-66646137D01*
X132934737Y-66085941D01*
X132935171Y-65854555D01*
X132938207Y-65698552D01*
X132946441Y-65604191D01*
X132962471Y-65557733D01*
X132988894Y-65545437D01*
X133028308Y-65553564D01*
X133035000Y-65555546D01*
X133145786Y-65581065D01*
X133288728Y-65605322D01*
X133313508Y-65608722D01*
X133452471Y-65633300D01*
X133566128Y-65663866D01*
X133580877Y-65669519D01*
X133705724Y-65710894D01*
X133905782Y-65763228D01*
X134168264Y-65823365D01*
X134405263Y-65873080D01*
X134611082Y-65915896D01*
X134844584Y-65966090D01*
X135006842Y-66001977D01*
X135189232Y-66041988D01*
X135359941Y-66077691D01*
X135474737Y-66099996D01*
X135593535Y-66129013D01*
X135674887Y-66162623D01*
X135679428Y-66165850D01*
X135747453Y-66193016D01*
X135873245Y-66224074D01*
X135991358Y-66245885D01*
X136436080Y-66324728D01*
X136852374Y-66413740D01*
X137211013Y-66506630D01*
X137234770Y-66513578D01*
X137411013Y-66560018D01*
X137572657Y-66593097D01*
X137684098Y-66605614D01*
X137789960Y-66614128D01*
X137850469Y-66634446D01*
X137932625Y-66681922D01*
X138086200Y-66739723D01*
X138294670Y-66803721D01*
X138541512Y-66869789D01*
X138810201Y-66933799D01*
X139084214Y-66991624D01*
X139347026Y-67039137D01*
X139582114Y-67072210D01*
X139618947Y-67076182D01*
X139774995Y-67096285D01*
X139896439Y-67119606D01*
X139953158Y-67139231D01*
X140021892Y-67166041D01*
X140142107Y-67193869D01*
X140196034Y-67203064D01*
X140327101Y-67229624D01*
X140421930Y-67260522D01*
X140441122Y-67271590D01*
X140507792Y-67298926D01*
X140632796Y-67330720D01*
X140755263Y-67354172D01*
X140931851Y-67387738D01*
X141143498Y-67434282D01*
X141366252Y-67487801D01*
X141576162Y-67542289D01*
X141749276Y-67591742D01*
X141861642Y-67630156D01*
X141869298Y-67633464D01*
X141982661Y-67673417D01*
X142169705Y-67723779D01*
X142436444Y-67786116D01*
X142560000Y-67813279D01*
X142864932Y-67881397D01*
X143098443Y-67938745D01*
X143276878Y-67990048D01*
X143416581Y-68040031D01*
X143533898Y-68093421D01*
X143540351Y-68096717D01*
X143639834Y-68129396D01*
X143795309Y-68160863D01*
X143973811Y-68184498D01*
X143980672Y-68185159D01*
X144151788Y-68205464D01*
X144293886Y-68229654D01*
X144378223Y-68252761D01*
X144381725Y-68254473D01*
X144473170Y-68286399D01*
X144635012Y-68326486D01*
X144849343Y-68370857D01*
X145098254Y-68415636D01*
X145211403Y-68434043D01*
X145387206Y-68465903D01*
X145561520Y-68503830D01*
X145612456Y-68516657D01*
X145775496Y-68548924D01*
X145938274Y-68564922D01*
X145955177Y-68565253D01*
X146070071Y-68576990D01*
X146141617Y-68604539D01*
X146147193Y-68610877D01*
X146205266Y-68638866D01*
X146317265Y-68655028D01*
X146361489Y-68656501D01*
X146535085Y-68669678D01*
X146710144Y-68700422D01*
X146726491Y-68704545D01*
X146884085Y-68741816D01*
X147066473Y-68779186D01*
X147127544Y-68790323D01*
X147313104Y-68829751D01*
X147511558Y-68882152D01*
X147573158Y-68901011D01*
X147719807Y-68945365D01*
X147917960Y-69001400D01*
X148132626Y-69059310D01*
X148208331Y-69079016D01*
X148391167Y-69127550D01*
X148541891Y-69170322D01*
X148639164Y-69201139D01*
X148662108Y-69210723D01*
X148727425Y-69234222D01*
X148846587Y-69265010D01*
X148918162Y-69280742D01*
X149070907Y-69312338D01*
X149204844Y-69340017D01*
X149244210Y-69348141D01*
X149354136Y-69369635D01*
X149497405Y-69396177D01*
X149646202Y-69422816D01*
X149772713Y-69444602D01*
X149849121Y-69456583D01*
X149858849Y-69457544D01*
X149866342Y-69415205D01*
X149852130Y-69291365D01*
X149816900Y-69090787D01*
X149778695Y-68900526D01*
X149763397Y-68800156D01*
X149751906Y-68659373D01*
X149744109Y-68470430D01*
X149739891Y-68225582D01*
X149739489Y-68060563D01*
X150597662Y-68060563D01*
X150604346Y-68374542D01*
X150619732Y-68637306D01*
X150644587Y-68858289D01*
X150679678Y-69046923D01*
X150725772Y-69212640D01*
X150783635Y-69364874D01*
X150848634Y-69502523D01*
X150936820Y-69633391D01*
X151051223Y-69705927D01*
X151104641Y-69723336D01*
X151480754Y-69827935D01*
X151782321Y-69911204D01*
X152020559Y-69976059D01*
X152206682Y-70025417D01*
X152351908Y-70062193D01*
X152467450Y-70089305D01*
X152564526Y-70109670D01*
X152653158Y-70125995D01*
X152830784Y-70166230D01*
X153028237Y-70224365D01*
X153115069Y-70254762D01*
X153294043Y-70312849D01*
X153479854Y-70359087D01*
X153560683Y-70373424D01*
X153726941Y-70405316D01*
X153918688Y-70454476D01*
X154012280Y-70483194D01*
X154519681Y-70620588D01*
X155057658Y-70711148D01*
X155260000Y-70731222D01*
X155438045Y-70748379D01*
X155582810Y-70768106D01*
X155670564Y-70786960D01*
X155683333Y-70792654D01*
X155753275Y-70821367D01*
X155889766Y-70861966D01*
X156071886Y-70909256D01*
X156278712Y-70958042D01*
X156489323Y-71003131D01*
X156663684Y-71036061D01*
X157075762Y-71109464D01*
X157420381Y-71176098D01*
X157718448Y-71240779D01*
X157990871Y-71308324D01*
X158258558Y-71383549D01*
X158514867Y-71462484D01*
X158707900Y-71515247D01*
X158916353Y-71559668D01*
X159005042Y-71573960D01*
X159175151Y-71603014D01*
X159384704Y-71647141D01*
X159582456Y-71695291D01*
X159779075Y-71746780D01*
X159970544Y-71795633D01*
X160178690Y-71847245D01*
X160425340Y-71907015D01*
X160732320Y-71980339D01*
X160807894Y-71998297D01*
X161006702Y-72045851D01*
X161190960Y-72090524D01*
X161330295Y-72124933D01*
X161364912Y-72133721D01*
X161472347Y-72160635D01*
X161641079Y-72202031D01*
X161845718Y-72251707D01*
X162011052Y-72291523D01*
X162231693Y-72346126D01*
X162441198Y-72400887D01*
X162611814Y-72448401D01*
X162695675Y-72474193D01*
X162870513Y-72525775D01*
X163058308Y-72571484D01*
X163096728Y-72579348D01*
X163503047Y-72661061D01*
X163901599Y-72746440D01*
X164239122Y-72823775D01*
X164431008Y-72867556D01*
X164620722Y-72907487D01*
X164751579Y-72932142D01*
X164909838Y-72964336D01*
X165100918Y-73010688D01*
X165219473Y-73042979D01*
X165398016Y-73092157D01*
X165572706Y-73136687D01*
X165665087Y-73158041D01*
X165805955Y-73195917D01*
X165983267Y-73253916D01*
X166110701Y-73301021D01*
X166309183Y-73370661D01*
X166527062Y-73435026D01*
X166645438Y-73464144D01*
X166841746Y-73509965D01*
X167063891Y-73566280D01*
X167202456Y-73603830D01*
X167407069Y-73657028D01*
X167627451Y-73707778D01*
X167759473Y-73734423D01*
X168023523Y-73784724D01*
X168279844Y-73836789D01*
X168508604Y-73886317D01*
X168689974Y-73929012D01*
X168804122Y-73960573D01*
X168806666Y-73961426D01*
X168925845Y-73993302D01*
X169073497Y-74022429D01*
X169096315Y-74026024D01*
X169213932Y-74047665D01*
X169395863Y-74085734D01*
X169619920Y-74135218D01*
X169863912Y-74191100D01*
X170105650Y-74248365D01*
X170322945Y-74301997D01*
X170366315Y-74313081D01*
X170510890Y-74344960D01*
X170682640Y-74375802D01*
X170734495Y-74383700D01*
X170863884Y-74409165D01*
X170952079Y-74439347D01*
X170971072Y-74453563D01*
X171028042Y-74480287D01*
X171134466Y-74492845D01*
X171147213Y-74492982D01*
X171289363Y-74507019D01*
X171452248Y-74541845D01*
X171489934Y-74552850D01*
X171628291Y-74592031D01*
X171815954Y-74639799D01*
X172014981Y-74686542D01*
X172037368Y-74691525D01*
X172220124Y-74733394D01*
X172381506Y-74772957D01*
X172491681Y-74802844D01*
X172505263Y-74807117D01*
X172629202Y-74841832D01*
X172771648Y-74873923D01*
X172772631Y-74874114D01*
X172889813Y-74903347D01*
X172968534Y-74934547D01*
X172973158Y-74937658D01*
X173041890Y-74964358D01*
X173162103Y-74992121D01*
X173216034Y-75001309D01*
X173347066Y-75026970D01*
X173441892Y-75055619D01*
X173461122Y-75065591D01*
X173524293Y-75090701D01*
X173650543Y-75127239D01*
X173815719Y-75168381D01*
X173864386Y-75179512D01*
X174044099Y-75221649D01*
X174199512Y-75261350D01*
X174302367Y-75291320D01*
X174315333Y-75295959D01*
X174415817Y-75324102D01*
X174560174Y-75352903D01*
X174627263Y-75363463D01*
X175009989Y-75437977D01*
X175419844Y-75552819D01*
X175574328Y-75605004D01*
X175760454Y-75664710D01*
X175955849Y-75717820D01*
X176048463Y-75738711D01*
X176232431Y-75778225D01*
X176489730Y-75837727D01*
X176807607Y-75914144D01*
X177173306Y-76004406D01*
X177574069Y-76105441D01*
X177616563Y-76116269D01*
X177832944Y-76174983D01*
X178041089Y-76237539D01*
X178210410Y-76294481D01*
X178277538Y-76320674D01*
X178480060Y-76390158D01*
X178630784Y-76404708D01*
X178721594Y-76363737D01*
X178729138Y-76353421D01*
X178738660Y-76295591D01*
X178747671Y-76160839D01*
X178755771Y-75961366D01*
X178762558Y-75709372D01*
X178767629Y-75417059D01*
X178770583Y-75096626D01*
X178770594Y-75094561D01*
X178773848Y-74693423D01*
X178779383Y-74246496D01*
X178786695Y-73784480D01*
X178795278Y-73338077D01*
X178804624Y-72937986D01*
X178808410Y-72799649D01*
X178818967Y-72453256D01*
X178829142Y-72182463D01*
X178840298Y-71973762D01*
X178853798Y-71813647D01*
X178871004Y-71688610D01*
X178893278Y-71585146D01*
X178921982Y-71489747D01*
X178947830Y-71417300D01*
X179002361Y-71260700D01*
X179041172Y-71130499D01*
X179055789Y-71055474D01*
X179072835Y-70953619D01*
X179118220Y-70795621D01*
X179183313Y-70606429D01*
X179259486Y-70410994D01*
X179338107Y-70234266D01*
X179344062Y-70222053D01*
X179513893Y-69950928D01*
X179745954Y-69686659D01*
X180015639Y-69456154D01*
X180094714Y-69401213D01*
X180357965Y-69229524D01*
X180564539Y-69100130D01*
X180730679Y-69004087D01*
X180872629Y-68932451D01*
X181006631Y-68876278D01*
X181122346Y-68835357D01*
X181231797Y-68800664D01*
X181331346Y-68775407D01*
X181436765Y-68758564D01*
X181563829Y-68749111D01*
X181728311Y-68746023D01*
X181945986Y-68748277D01*
X182232627Y-68754850D01*
X182325504Y-68757275D01*
X182682724Y-68768584D01*
X182968092Y-68783745D01*
X183198877Y-68806236D01*
X183392350Y-68839535D01*
X183565778Y-68887120D01*
X183736433Y-68952469D01*
X183921583Y-69039060D01*
X184050876Y-69104756D01*
X184351659Y-69267241D01*
X184588859Y-69415311D01*
X184782273Y-69566013D01*
X184951702Y-69736398D01*
X185116946Y-69943512D01*
X185256660Y-70142996D01*
X185395680Y-70345067D01*
X185533098Y-70538123D01*
X185653183Y-70700458D01*
X185740204Y-70810366D01*
X185741102Y-70811418D01*
X185897439Y-71015197D01*
X186055414Y-71257803D01*
X186203919Y-71518208D01*
X186331843Y-71775385D01*
X186428076Y-72008306D01*
X186481508Y-72195944D01*
X186485282Y-72219899D01*
X186466772Y-72378471D01*
X186381407Y-72513980D01*
X186250775Y-72611366D01*
X186096464Y-72655567D01*
X185940060Y-72631522D01*
X185913468Y-72618847D01*
X185831919Y-72570276D01*
X185765996Y-72513230D01*
X185702792Y-72430321D01*
X185629396Y-72304164D01*
X185532901Y-72117371D01*
X185515577Y-72082928D01*
X185328215Y-71734686D01*
X185147323Y-71452858D01*
X184974237Y-71233286D01*
X184900570Y-71145127D01*
X184791367Y-71009880D01*
X184665512Y-70851040D01*
X184610706Y-70780987D01*
X184484765Y-70623658D01*
X184367588Y-70484833D01*
X184277478Y-70385902D01*
X184250247Y-70359759D01*
X184094294Y-70238058D01*
X183886370Y-70094829D01*
X183654360Y-69948112D01*
X183426152Y-69815947D01*
X183333684Y-69766823D01*
X183044035Y-69618291D01*
X182415187Y-69624007D01*
X182066785Y-69633258D01*
X181784069Y-69657511D01*
X181544128Y-69702118D01*
X181324048Y-69772433D01*
X181100917Y-69873807D01*
X180916638Y-69974096D01*
X180642366Y-70149593D01*
X180405371Y-70337918D01*
X180221785Y-70524821D01*
X180114070Y-70682982D01*
X180045349Y-70847523D01*
X179970106Y-71072096D01*
X179896152Y-71328773D01*
X179831296Y-71589622D01*
X179783346Y-71826714D01*
X179769974Y-71913631D01*
X179759921Y-72031176D01*
X179750067Y-72226051D01*
X179740721Y-72486463D01*
X179732193Y-72800619D01*
X179724794Y-73156727D01*
X179718833Y-73542994D01*
X179714621Y-73947627D01*
X179713896Y-74047368D01*
X179701929Y-75852105D01*
X179848001Y-76154667D01*
X180006589Y-76410357D01*
X180206514Y-76594168D01*
X180461376Y-76716411D01*
X180654554Y-76766119D01*
X180826511Y-76799538D01*
X181040900Y-76840995D01*
X181252620Y-76881769D01*
X181261579Y-76883490D01*
X181461706Y-76922111D01*
X181656678Y-76960051D01*
X181807297Y-76989679D01*
X181818596Y-76991928D01*
X181954813Y-77014911D01*
X182146266Y-77041942D01*
X182359491Y-77068418D01*
X182442456Y-77077721D01*
X182979374Y-77143592D01*
X183436395Y-77216189D01*
X183809966Y-77294904D01*
X183979824Y-77340960D01*
X184155983Y-77393810D01*
X184316521Y-77442011D01*
X184425438Y-77474753D01*
X184551897Y-77505367D01*
X184714507Y-77535514D01*
X184781929Y-77545660D01*
X185034917Y-77590033D01*
X185310762Y-77653824D01*
X185574777Y-77727985D01*
X185792274Y-77803469D01*
X185829300Y-77818862D01*
X185988167Y-77881863D01*
X186179939Y-77950032D01*
X186297017Y-77988003D01*
X186454085Y-78037688D01*
X186587237Y-78082063D01*
X186653508Y-78106103D01*
X186759617Y-78139700D01*
X186892834Y-78171512D01*
X186897134Y-78172369D01*
X187022287Y-78202624D01*
X187116008Y-78234534D01*
X187119941Y-78236395D01*
X187371203Y-78350577D01*
X187622616Y-78449173D01*
X187844109Y-78520927D01*
X187945789Y-78545568D01*
X188109782Y-78579362D01*
X188312415Y-78623210D01*
X188480526Y-78660958D01*
X188672694Y-78703450D01*
X188862619Y-78742869D01*
X188992982Y-78767721D01*
X189118534Y-78796623D01*
X189301095Y-78847221D01*
X189513576Y-78911711D01*
X189678212Y-78965147D01*
X189880311Y-79030222D01*
X190058331Y-79082848D01*
X190191280Y-79117108D01*
X190253599Y-79127368D01*
X190331240Y-79141383D01*
X190471460Y-79179338D01*
X190652946Y-79235097D01*
X190816088Y-79289280D01*
X191100273Y-79384571D01*
X191346088Y-79460763D01*
X191582277Y-79525525D01*
X191837586Y-79586527D01*
X192140761Y-79651439D01*
X192279434Y-79679724D01*
X192480842Y-79722376D01*
X192649083Y-79761680D01*
X192765451Y-79793021D01*
X192810457Y-79810692D01*
X192876533Y-79836392D01*
X192971898Y-79839014D01*
X193057078Y-79821652D01*
X193092631Y-79788561D01*
X193078902Y-79727162D01*
X193041768Y-79601470D01*
X192987306Y-79431299D01*
X192937178Y-79281813D01*
X192863636Y-79056679D01*
X192794243Y-78826992D01*
X192739229Y-78627379D01*
X192718738Y-78542638D01*
X192682737Y-78404991D01*
X192623022Y-78204188D01*
X192546092Y-77960919D01*
X192458445Y-77695875D01*
X192391549Y-77500877D01*
X192293983Y-77216028D01*
X192196262Y-76921752D01*
X192106778Y-76643942D01*
X192033927Y-76408491D01*
X192001521Y-76297719D01*
X191888376Y-75910008D01*
X191770170Y-75528311D01*
X191651429Y-75165606D01*
X191536680Y-74834872D01*
X191430451Y-74549088D01*
X191337269Y-74321234D01*
X191261662Y-74164287D01*
X191250688Y-74145266D01*
X191155346Y-73979539D01*
X191066288Y-73813682D01*
X191016735Y-73713158D01*
X190963794Y-73609819D01*
X190873555Y-73446478D01*
X190755304Y-73239112D01*
X190618326Y-73003697D01*
X190471906Y-72756211D01*
X190325330Y-72512631D01*
X190205734Y-72317660D01*
X190084347Y-72107535D01*
X190007265Y-71927686D01*
X189963361Y-71741656D01*
X189941507Y-71512989D01*
X189937998Y-71440526D01*
X189933007Y-71227446D01*
X189942620Y-71067207D01*
X189971808Y-70924050D01*
X190025542Y-70762216D01*
X190036305Y-70733379D01*
X190095146Y-70550539D01*
X190136685Y-70370682D01*
X190151579Y-70238712D01*
X190161433Y-70083555D01*
X190185736Y-69942275D01*
X190191708Y-69920948D01*
X190215708Y-69818287D01*
X190245020Y-69656203D01*
X190274552Y-69463787D01*
X190284519Y-69390702D01*
X190348824Y-68947763D01*
X190418490Y-68573193D01*
X190499389Y-68246236D01*
X190597391Y-67946140D01*
X190718368Y-67652150D01*
X190858109Y-67363158D01*
X191022523Y-67020808D01*
X191138619Y-66722649D01*
X191213222Y-66442856D01*
X191253159Y-66155607D01*
X191265257Y-65835079D01*
X191265260Y-65822942D01*
X191267872Y-65631485D01*
X191275337Y-65375437D01*
X191286733Y-65079145D01*
X191301141Y-64766954D01*
X191314840Y-64511228D01*
X191331820Y-64194832D01*
X191341458Y-63953493D01*
X191343615Y-63773436D01*
X191338147Y-63640886D01*
X191324914Y-63542069D01*
X191304054Y-63464035D01*
X191257402Y-63349936D01*
X191199125Y-63295807D01*
X191095505Y-63275276D01*
X191058960Y-63272332D01*
X190930955Y-63277980D01*
X190772651Y-63315824D01*
X190564762Y-63391089D01*
X190457381Y-63435389D01*
X190125372Y-63575708D01*
X189863352Y-63685973D01*
X189659316Y-63771052D01*
X189501257Y-63835813D01*
X189377170Y-63885125D01*
X189275047Y-63923854D01*
X189182882Y-63956869D01*
X189107771Y-63982602D01*
X188910251Y-64057390D01*
X188698505Y-64149487D01*
X188595315Y-64199651D01*
X188417735Y-64284338D01*
X188177330Y-64387500D01*
X187867568Y-64511807D01*
X187481920Y-64659928D01*
X187321929Y-64720090D01*
X187134635Y-64764771D01*
X186934462Y-64757071D01*
X186703264Y-64694231D01*
X186452982Y-64587925D01*
X186260688Y-64498867D01*
X186065940Y-64412431D01*
X185908055Y-64346027D01*
X185895965Y-64341221D01*
X185713102Y-64265218D01*
X185499162Y-64170335D01*
X185274114Y-64066117D01*
X185057928Y-63962107D01*
X184870574Y-63867849D01*
X184732022Y-63792889D01*
X184677132Y-63758707D01*
X184576874Y-63691872D01*
X184443532Y-63611359D01*
X184263385Y-63509262D01*
X184022708Y-63377676D01*
X183912982Y-63318542D01*
X183716704Y-63210958D01*
X183503755Y-63091055D01*
X183355965Y-63005655D01*
X182864248Y-62728681D01*
X182418518Y-62504101D01*
X182085965Y-62357211D01*
X181875250Y-62267619D01*
X181657419Y-62170766D01*
X181472861Y-62084699D01*
X181439824Y-62068553D01*
X181269428Y-61985996D01*
X181101643Y-61909162D01*
X180924690Y-61833554D01*
X180726794Y-61754679D01*
X180496176Y-61668041D01*
X180221061Y-61569147D01*
X179889671Y-61453500D01*
X179490229Y-61316607D01*
X179300877Y-61252218D01*
X179033378Y-61159732D01*
X178781111Y-61069445D01*
X178561796Y-60987930D01*
X178393153Y-60921762D01*
X178298245Y-60880222D01*
X178177788Y-60824670D01*
X177998496Y-60747325D01*
X177784685Y-60658472D01*
X177562982Y-60569305D01*
X177340628Y-60480681D01*
X177130155Y-60395389D01*
X176955250Y-60323113D01*
X176839599Y-60273538D01*
X176839345Y-60273424D01*
X176720730Y-60222953D01*
X176637991Y-60192667D01*
X176620271Y-60188772D01*
X176571877Y-60170093D01*
X176457998Y-60118536D01*
X176292992Y-60040825D01*
X176091215Y-59943679D01*
X175962504Y-59880837D01*
X175487589Y-59652454D01*
X175068565Y-59462156D01*
X174685011Y-59302001D01*
X174316501Y-59164045D01*
X173942614Y-59040344D01*
X173542924Y-58922955D01*
X173396491Y-58882789D01*
X173054430Y-58789001D01*
X172786001Y-58711927D01*
X172578191Y-58647415D01*
X172417989Y-58591309D01*
X172292380Y-58539454D01*
X172234225Y-58511692D01*
X172021511Y-58368513D01*
X171785049Y-58141259D01*
X171526149Y-57831383D01*
X171246122Y-57440338D01*
X171183488Y-57346114D01*
X171018100Y-57104017D01*
X170828056Y-56841045D01*
X170637964Y-56590519D01*
X170486708Y-56402662D01*
X170337081Y-56220542D01*
X170198093Y-56044356D01*
X170086106Y-55895262D01*
X170021526Y-55801083D01*
X169923826Y-55662417D01*
X169797924Y-55508377D01*
X169728056Y-55431842D01*
X169636673Y-55340172D01*
X169556906Y-55276197D01*
X169479686Y-55244322D01*
X169395944Y-55248949D01*
X169296612Y-55294480D01*
X169172620Y-55385320D01*
X169014901Y-55525870D01*
X168814385Y-55720534D01*
X168562003Y-55973715D01*
X168515700Y-56020457D01*
X168156841Y-56390989D01*
X167866082Y-56709070D01*
X167644156Y-56973872D01*
X167502591Y-57167913D01*
X167359485Y-57376228D01*
X167213995Y-57571334D01*
X167077154Y-57740050D01*
X166959993Y-57869193D01*
X166873547Y-57945582D01*
X166839066Y-57960702D01*
X166779409Y-57984058D01*
X166675965Y-58043624D01*
X166608906Y-58087383D01*
X166427602Y-58190594D01*
X166182822Y-58301143D01*
X165898551Y-58409244D01*
X165598775Y-58505112D01*
X165553684Y-58517908D01*
X165377731Y-58567207D01*
X165204187Y-58616230D01*
X165130351Y-58637267D01*
X165016552Y-58677408D01*
X164847703Y-58746189D01*
X164648817Y-58833103D01*
X164490191Y-58906130D01*
X164270973Y-59007121D01*
X164048733Y-59105493D01*
X163854558Y-59187674D01*
X163754928Y-59227187D01*
X163390793Y-59375392D01*
X163056779Y-59536975D01*
X162705040Y-59735096D01*
X162701754Y-59737053D01*
X162508051Y-59848914D01*
X162273768Y-59979057D01*
X162038030Y-60105899D01*
X161944210Y-60154954D01*
X161683438Y-60291291D01*
X161486981Y-60398761D01*
X161339015Y-60487490D01*
X161223716Y-60567607D01*
X161125260Y-60649239D01*
X161030701Y-60739631D01*
X160924801Y-60832256D01*
X160764191Y-60956521D01*
X160569780Y-61096898D01*
X160362476Y-61237861D01*
X160340000Y-61252594D01*
X159889783Y-61558743D01*
X159486959Y-61860344D01*
X159227751Y-62071301D01*
X159160897Y-62123661D01*
X159045755Y-62210424D01*
X158906166Y-62313643D01*
X158893541Y-62322890D01*
X158760619Y-62421641D01*
X158657691Y-62500846D01*
X158604487Y-62545276D01*
X158602105Y-62547884D01*
X158556037Y-62585387D01*
X158457337Y-62656107D01*
X158334737Y-62739766D01*
X158164364Y-62855251D01*
X157986323Y-62978328D01*
X157884424Y-63050155D01*
X157722575Y-63164875D01*
X157542941Y-63291020D01*
X157461091Y-63348051D01*
X157215223Y-63531577D01*
X157048302Y-63686762D01*
X156956195Y-63817535D01*
X156948478Y-63835542D01*
X156937526Y-63943918D01*
X156977596Y-64091575D01*
X157071850Y-64285798D01*
X157223455Y-64533872D01*
X157304595Y-64655291D01*
X157414578Y-64821303D01*
X157482148Y-64942223D01*
X157517515Y-65044886D01*
X157530888Y-65156126D01*
X157532631Y-65254624D01*
X157524071Y-65427660D01*
X157493585Y-65541542D01*
X157441773Y-65616860D01*
X157339455Y-65691588D01*
X157223444Y-65706113D01*
X157090051Y-65657341D01*
X156935584Y-65542175D01*
X156756354Y-65357519D01*
X156548670Y-65100279D01*
X156308842Y-64767359D01*
X156150323Y-64533509D01*
X156054540Y-64402299D01*
X155915998Y-64228084D01*
X155753203Y-64032589D01*
X155584659Y-63837533D01*
X155428872Y-63664640D01*
X155304348Y-63535631D01*
X155282480Y-63514825D01*
X155162888Y-63413262D01*
X155001083Y-63287698D01*
X154825661Y-63159163D01*
X154665216Y-63048686D01*
X154560595Y-62983920D01*
X154444922Y-62927344D01*
X154281750Y-62856743D01*
X154116741Y-62791386D01*
X153975633Y-62741149D01*
X153857540Y-62710109D01*
X153735859Y-62695432D01*
X153583988Y-62694284D01*
X153375325Y-62703828D01*
X153323338Y-62706836D01*
X153035823Y-62728003D01*
X152813354Y-62756019D01*
X152631881Y-62795512D01*
X152467356Y-62851111D01*
X152379055Y-62888580D01*
X152275636Y-62931192D01*
X152210140Y-62951336D01*
X152206802Y-62951579D01*
X152157202Y-62974726D01*
X152053985Y-63036153D01*
X151917107Y-63123837D01*
X151879326Y-63148880D01*
X151657789Y-63306712D01*
X151475359Y-63463800D01*
X151321887Y-63634993D01*
X151187222Y-63835140D01*
X151061213Y-64079090D01*
X150933710Y-64381692D01*
X150810971Y-64711754D01*
X150771143Y-64841238D01*
X150737563Y-64994513D01*
X150709286Y-65181612D01*
X150685368Y-65412568D01*
X150664863Y-65697415D01*
X150646827Y-66046185D01*
X150630315Y-66468911D01*
X150622151Y-66717017D01*
X150607331Y-67241234D01*
X150598913Y-67685938D01*
X150597662Y-68060563D01*
X149739489Y-68060563D01*
X149739139Y-67917081D01*
X149741740Y-67537182D01*
G37*
G36*
X166652986Y-67690627D02*
G01*
X166778066Y-67767413D01*
X166889282Y-67908472D01*
X166957774Y-68031579D01*
X167043616Y-68175513D01*
X167139900Y-68302673D01*
X167175254Y-68339657D01*
X167290558Y-68447208D01*
X167770103Y-68365543D01*
X167983051Y-68326086D01*
X168177506Y-68284354D01*
X168327727Y-68246173D01*
X168393042Y-68224570D01*
X168550268Y-68181647D01*
X168732426Y-68164111D01*
X168910732Y-68171099D01*
X169056403Y-68201751D01*
X169133970Y-68246754D01*
X169191096Y-68324914D01*
X169207910Y-68369298D01*
X169234529Y-68438485D01*
X169303990Y-68553804D01*
X169401241Y-68693626D01*
X169511231Y-68836326D01*
X169618908Y-68960275D01*
X169620052Y-68961484D01*
X169734860Y-69058554D01*
X169879660Y-69131775D01*
X170068268Y-69184735D01*
X170314498Y-69221025D01*
X170632168Y-69244235D01*
X170724332Y-69248413D01*
X170939131Y-69260765D01*
X171089489Y-69280319D01*
X171200065Y-69312292D01*
X171295521Y-69361899D01*
X171312611Y-69372849D01*
X171476225Y-69517697D01*
X171557193Y-69674249D01*
X171558649Y-69830018D01*
X171483725Y-69972518D01*
X171335553Y-70089263D01*
X171117266Y-70167768D01*
X171112946Y-70168704D01*
X170902244Y-70197167D01*
X170636914Y-70208897D01*
X170349777Y-70204356D01*
X170073653Y-70184008D01*
X169853859Y-70150962D01*
X169663535Y-70106490D01*
X169510336Y-70054148D01*
X169373138Y-69981336D01*
X169230818Y-69875457D01*
X169062253Y-69723910D01*
X168939478Y-69605575D01*
X168559833Y-69234754D01*
X168248776Y-69231662D01*
X168041509Y-69239732D01*
X167800883Y-69263853D01*
X167586075Y-69297552D01*
X167381122Y-69332520D01*
X167229269Y-69343037D01*
X167098206Y-69330105D01*
X167029058Y-69314828D01*
X166763923Y-69207843D01*
X166522505Y-69035387D01*
X166317828Y-68814275D01*
X166162915Y-68561321D01*
X166070790Y-68293342D01*
X166052292Y-68053718D01*
X166097268Y-67860240D01*
X166202788Y-67732156D01*
X166368705Y-67669596D01*
X166495704Y-67663506D01*
X166652986Y-67690627D01*
G37*
G36*
X182731437Y-72464765D02*
G01*
X182870367Y-72505582D01*
X183155428Y-72640345D01*
X183411252Y-72850378D01*
X183622889Y-73122979D01*
X183649212Y-73167281D01*
X183728098Y-73297349D01*
X183792375Y-73389570D01*
X183827373Y-73423509D01*
X183863209Y-73461598D01*
X183910266Y-73555974D01*
X183956837Y-73676803D01*
X183991215Y-73794250D01*
X184002105Y-73868806D01*
X183975748Y-73993277D01*
X183907542Y-74155415D01*
X183813779Y-74325341D01*
X183710753Y-74473181D01*
X183623782Y-74562503D01*
X183463426Y-74638652D01*
X183256821Y-74674587D01*
X183037368Y-74670071D01*
X182838471Y-74624871D01*
X182729194Y-74568780D01*
X182537481Y-74408409D01*
X182357571Y-74218968D01*
X182252808Y-74080418D01*
X182173128Y-73913243D01*
X182106307Y-73689088D01*
X182059897Y-73439937D01*
X182041456Y-73197774D01*
X182041403Y-73185459D01*
X182068820Y-72934034D01*
X182156307Y-72741462D01*
X182311720Y-72594371D01*
X182427063Y-72528946D01*
X182547911Y-72474053D01*
X182636311Y-72453347D01*
X182731437Y-72464765D01*
G37*
G36*
X183952330Y-70958699D02*
G01*
X184120671Y-71026414D01*
X184242741Y-71127659D01*
X184288637Y-71216862D01*
X184315536Y-71418340D01*
X184300574Y-71633057D01*
X184249582Y-71832099D01*
X184168395Y-71986552D01*
X184123887Y-72033536D01*
X184015342Y-72097320D01*
X183854036Y-72163905D01*
X183675117Y-72221415D01*
X183513730Y-72257974D01*
X183439192Y-72264912D01*
X183324082Y-72242810D01*
X183215180Y-72165231D01*
X183154619Y-72101206D01*
X183068702Y-71993496D01*
X183030770Y-71902379D01*
X183027767Y-71785466D01*
X183034525Y-71711294D01*
X183085182Y-71479962D01*
X183179603Y-71264302D01*
X183303618Y-71091449D01*
X183400526Y-71010406D01*
X183569173Y-70945329D01*
X183760803Y-70929883D01*
X183952330Y-70958699D01*
G37*
G36*
X164118877Y-65951796D02*
G01*
X164393121Y-66067112D01*
X164619186Y-66251817D01*
X164780343Y-66484467D01*
X164826009Y-66630539D01*
X164851010Y-66830792D01*
X164855291Y-67053041D01*
X164838795Y-67265102D01*
X164801468Y-67434790D01*
X164782072Y-67480960D01*
X164701801Y-67599374D01*
X164576014Y-67746411D01*
X164427875Y-67898637D01*
X164280545Y-68032614D01*
X164157184Y-68124909D01*
X164131170Y-68139553D01*
X163953241Y-68196718D01*
X163725889Y-68223864D01*
X163484717Y-68217677D01*
X163404603Y-68207181D01*
X163204745Y-68147510D01*
X162981086Y-68038960D01*
X162765951Y-67900827D01*
X162591661Y-67752406D01*
X162536255Y-67688829D01*
X162469005Y-67587769D01*
X162433294Y-67487281D01*
X162420455Y-67353504D01*
X162420229Y-67235520D01*
X162461837Y-66872795D01*
X162573790Y-66562243D01*
X162753268Y-66307389D01*
X162997450Y-66111757D01*
X163303518Y-65978871D01*
X163455511Y-65941493D01*
X163803869Y-65908911D01*
X164118877Y-65951796D01*
G37*
G36*
X180962471Y-72294038D02*
G01*
X181109073Y-72367384D01*
X181267634Y-72498058D01*
X181460904Y-72703062D01*
X181569369Y-72885741D01*
X181593483Y-73049724D01*
X181533703Y-73198639D01*
X181390482Y-73336112D01*
X181374207Y-73347571D01*
X181246079Y-73406715D01*
X181099727Y-73410148D01*
X180915306Y-73356637D01*
X180812473Y-73312675D01*
X180649223Y-73222356D01*
X180498443Y-73111993D01*
X180379562Y-72998748D01*
X180312005Y-72899782D01*
X180303508Y-72863063D01*
X180278322Y-72805996D01*
X180258947Y-72799649D01*
X180219191Y-72765510D01*
X180224131Y-72677208D01*
X180270842Y-72555913D01*
X180299744Y-72504247D01*
X180380233Y-72407062D01*
X180495602Y-72344112D01*
X180612294Y-72310228D01*
X180806900Y-72277858D01*
X180962471Y-72294038D01*
G37*
G36*
X152094424Y-65371224D02*
G01*
X152279161Y-65425026D01*
X152420651Y-65528924D01*
X152510058Y-65665441D01*
X152538551Y-65817096D01*
X152497295Y-65966413D01*
X152435979Y-66047019D01*
X152275553Y-66173126D01*
X152076735Y-66279762D01*
X151864046Y-66358570D01*
X151662003Y-66401196D01*
X151495126Y-66399283D01*
X151445014Y-66384721D01*
X151326425Y-66301991D01*
X151224772Y-66175761D01*
X151166025Y-66041578D01*
X151160351Y-65995052D01*
X151201368Y-65846331D01*
X151311797Y-65698503D01*
X151472708Y-65564210D01*
X151665169Y-65456098D01*
X151870247Y-65386808D01*
X152069010Y-65368987D01*
X152094424Y-65371224D01*
G37*
%TD*%
D10*
%TO.C,SW1*%
X173508091Y-90598990D03*
X176213713Y-84614234D03*
X178027476Y-93694980D03*
X182972338Y-83567773D03*
%TD*%
%TO.C,SW2*%
X145153404Y-84052793D03*
X147859026Y-78068037D03*
X149672789Y-87148783D03*
X154617651Y-77021576D03*
%TD*%
M02*
