%TF.GenerationSoftware,KiCad,Pcbnew,(5.99.0-11661-g1332208ab1)*%
%TF.CreationDate,2021-08-31T19:17:50-04:00*%
%TF.ProjectId,bongocat,626f6e67-6f63-4617-942e-6b696361645f,rev?*%
%TF.SameCoordinates,Original*%
%TF.FileFunction,Copper,L1,Top*%
%TF.FilePolarity,Positive*%
%FSLAX46Y46*%
G04 Gerber Fmt 4.6, Leading zero omitted, Abs format (unit mm)*
G04 Created by KiCad (PCBNEW (5.99.0-11661-g1332208ab1)) date 2021-08-31 19:17:50*
%MOMM*%
%LPD*%
G01*
G04 APERTURE LIST*
G04 Aperture macros list*
%AMHorizOval*
0 Thick line with rounded ends*
0 $1 width*
0 $2 $3 position (X,Y) of the first rounded end (center of the circle)*
0 $4 $5 position (X,Y) of the second rounded end (center of the circle)*
0 Add line between two ends*
20,1,$1,$2,$3,$4,$5,0*
0 Add two circle primitives to create the rounded ends*
1,1,$1,$2,$3*
1,1,$1,$4,$5*%
G04 Aperture macros list end*
%TA.AperFunction,WasherPad*%
%ADD10C,2.100000*%
%TD*%
%TA.AperFunction,WasherPad*%
%ADD11C,1.900000*%
%TD*%
%TA.AperFunction,ComponentPad*%
%ADD12HorizOval,2.000000X0.243593X-0.056238X-0.243593X0.056238X0*%
%TD*%
%TA.AperFunction,ComponentPad*%
%ADD13C,6.400000*%
%TD*%
G04 APERTURE END LIST*
D10*
%TO.P,SW1,*%
%TO.N,*%
X184713722Y-89183428D03*
D11*
X184304487Y-89088948D03*
D10*
X173995652Y-86708966D03*
D11*
X174404887Y-86803446D03*
D12*
%TO.P,SW1,1,1*%
%TO.N,row0*%
X173508091Y-90598990D03*
X176213713Y-84614234D03*
%TO.P,SW1,2,2*%
%TO.N,col0*%
X178027476Y-93694980D03*
X182972338Y-83567773D03*
%TD*%
D13*
%TO.P,REF\u002A\u002A,1*%
%TO.N,N/C*%
X140600000Y-57400000D03*
%TD*%
D10*
%TO.P,SW2,*%
%TO.N,*%
X145640965Y-80162769D03*
X156359035Y-82637231D03*
D11*
X146050200Y-80257249D03*
X155949800Y-82542751D03*
D12*
%TO.P,SW2,1,1*%
%TO.N,row1*%
X145153404Y-84052793D03*
X147859026Y-78068037D03*
%TO.P,SW2,2,2*%
%TO.N,col1*%
X149672789Y-87148783D03*
X154617651Y-77021576D03*
%TD*%
%TA.AperFunction,NonConductor*%
G36*
X200570082Y-51509504D02*
G01*
X200584857Y-51511805D01*
X200584861Y-51511805D01*
X200593730Y-51513186D01*
X200612411Y-51510743D01*
X200635342Y-51509852D01*
X200948496Y-51526264D01*
X200961612Y-51527642D01*
X201299780Y-51581202D01*
X201312680Y-51583944D01*
X201643395Y-51672559D01*
X201655938Y-51676635D01*
X201975566Y-51799329D01*
X201987615Y-51804693D01*
X202292682Y-51960132D01*
X202304098Y-51966723D01*
X202591252Y-52153203D01*
X202601912Y-52160949D01*
X202710644Y-52248998D01*
X202867989Y-52376414D01*
X202877790Y-52385239D01*
X203119885Y-52627334D01*
X203128710Y-52637135D01*
X203344173Y-52903209D01*
X203351921Y-52913872D01*
X203538398Y-53201021D01*
X203544992Y-53212442D01*
X203700431Y-53517509D01*
X203705795Y-53529558D01*
X203828489Y-53849186D01*
X203832565Y-53861727D01*
X203834290Y-53868167D01*
X203921180Y-54192444D01*
X203923922Y-54205343D01*
X203977482Y-54543512D01*
X203978860Y-54556628D01*
X203983135Y-54638191D01*
X203994888Y-54862454D01*
X203993560Y-54888436D01*
X203993319Y-54889980D01*
X203993319Y-54889984D01*
X203991938Y-54898854D01*
X203993102Y-54907756D01*
X203993102Y-54907759D01*
X203996055Y-54930338D01*
X203997119Y-54946690D01*
X203992006Y-96739307D01*
X203990506Y-96758675D01*
X203986814Y-96782390D01*
X203989117Y-96800000D01*
X203989257Y-96801070D01*
X203990148Y-96824003D01*
X203973736Y-97137155D01*
X203972358Y-97150272D01*
X203918798Y-97488440D01*
X203916056Y-97501340D01*
X203827441Y-97832055D01*
X203823365Y-97844598D01*
X203700671Y-98164226D01*
X203695307Y-98176275D01*
X203539868Y-98481342D01*
X203533277Y-98492758D01*
X203346797Y-98779912D01*
X203339049Y-98790575D01*
X203123586Y-99056649D01*
X203114761Y-99066450D01*
X202872666Y-99308545D01*
X202862865Y-99317370D01*
X202697844Y-99451002D01*
X202596791Y-99532833D01*
X202586128Y-99540581D01*
X202298974Y-99727061D01*
X202287558Y-99733652D01*
X201982491Y-99889091D01*
X201970442Y-99894455D01*
X201650814Y-100017149D01*
X201638273Y-100021225D01*
X201517886Y-100053482D01*
X201307556Y-100109840D01*
X201294656Y-100112582D01*
X200956488Y-100166142D01*
X200943372Y-100167520D01*
X200637542Y-100183548D01*
X200611564Y-100182220D01*
X200610020Y-100181979D01*
X200610016Y-100181979D01*
X200601146Y-100180598D01*
X200569562Y-100184728D01*
X200553251Y-100185791D01*
X136849288Y-100197114D01*
X136829884Y-100195614D01*
X136821192Y-100194261D01*
X136806270Y-100191938D01*
X136787589Y-100194381D01*
X136764658Y-100195272D01*
X136451504Y-100178860D01*
X136438388Y-100177482D01*
X136100220Y-100123922D01*
X136087320Y-100121180D01*
X135756605Y-100032565D01*
X135744062Y-100028489D01*
X135424434Y-99905795D01*
X135412385Y-99900431D01*
X135107318Y-99744992D01*
X135095902Y-99738401D01*
X134808748Y-99551921D01*
X134798085Y-99544173D01*
X134793656Y-99540586D01*
X134532011Y-99328710D01*
X134522210Y-99319885D01*
X134280115Y-99077790D01*
X134271290Y-99067989D01*
X134055827Y-98801915D01*
X134048079Y-98791252D01*
X133861599Y-98504098D01*
X133855008Y-98492682D01*
X133699569Y-98187615D01*
X133694205Y-98175566D01*
X133571511Y-97855938D01*
X133567435Y-97843395D01*
X133564397Y-97832055D01*
X133478820Y-97512680D01*
X133476078Y-97499780D01*
X133422518Y-97161612D01*
X133421140Y-97148495D01*
X133405112Y-96842670D01*
X133406440Y-96816688D01*
X133406681Y-96815144D01*
X133406681Y-96815140D01*
X133408062Y-96806270D01*
X133405603Y-96787461D01*
X133403951Y-96774834D01*
X133402887Y-96758462D01*
X133403745Y-93591204D01*
X176271222Y-93591204D01*
X176271469Y-93596255D01*
X176271469Y-93596257D01*
X176281619Y-93803784D01*
X176283080Y-93833662D01*
X176333549Y-94071105D01*
X176335376Y-94075815D01*
X176335378Y-94075822D01*
X176412168Y-94273795D01*
X176421333Y-94297423D01*
X176423892Y-94301784D01*
X176423894Y-94301789D01*
X176534059Y-94489561D01*
X176544171Y-94506796D01*
X176698904Y-94693836D01*
X176881551Y-94853732D01*
X176885837Y-94856410D01*
X176885838Y-94856411D01*
X177083124Y-94979690D01*
X177083128Y-94979692D01*
X177087412Y-94982369D01*
X177092071Y-94984327D01*
X177092072Y-94984328D01*
X177307545Y-95074904D01*
X177311192Y-95076437D01*
X177339239Y-95084267D01*
X177691221Y-95165529D01*
X177988697Y-95234207D01*
X177988703Y-95234208D01*
X177991167Y-95234777D01*
X178170768Y-95261299D01*
X178289769Y-95259637D01*
X178408433Y-95257981D01*
X178408437Y-95257981D01*
X178413493Y-95257910D01*
X178652552Y-95215757D01*
X178657328Y-95214094D01*
X178657331Y-95214093D01*
X178757561Y-95179189D01*
X178881797Y-95135925D01*
X179095330Y-95020470D01*
X179287656Y-94872358D01*
X179291114Y-94868675D01*
X179291119Y-94868671D01*
X179450360Y-94699096D01*
X179453828Y-94695403D01*
X179581044Y-94506796D01*
X179586740Y-94498352D01*
X179586741Y-94498350D01*
X179589570Y-94494156D01*
X179691391Y-94273795D01*
X179756671Y-94039991D01*
X179783730Y-93798756D01*
X179783483Y-93793703D01*
X179772119Y-93561342D01*
X179772119Y-93561338D01*
X179771872Y-93556298D01*
X179721403Y-93318855D01*
X179719576Y-93314145D01*
X179719574Y-93314138D01*
X179635449Y-93097255D01*
X179633619Y-93092537D01*
X179631060Y-93088176D01*
X179631058Y-93088171D01*
X179513342Y-92887529D01*
X179513342Y-92887528D01*
X179510781Y-92883164D01*
X179356048Y-92696124D01*
X179173401Y-92536228D01*
X179149494Y-92521289D01*
X178971827Y-92410270D01*
X178971823Y-92410268D01*
X178967539Y-92407591D01*
X178743760Y-92313523D01*
X178715713Y-92305693D01*
X178363731Y-92224431D01*
X178066255Y-92155753D01*
X178066249Y-92155752D01*
X178063785Y-92155183D01*
X177884184Y-92128661D01*
X177765183Y-92130323D01*
X177646519Y-92131979D01*
X177646515Y-92131979D01*
X177641459Y-92132050D01*
X177402400Y-92174203D01*
X177397624Y-92175866D01*
X177397621Y-92175867D01*
X177297391Y-92210771D01*
X177173155Y-92254035D01*
X176959622Y-92369490D01*
X176767296Y-92517602D01*
X176763838Y-92521285D01*
X176763833Y-92521289D01*
X176613132Y-92681769D01*
X176601124Y-92694557D01*
X176598292Y-92698756D01*
X176598291Y-92698757D01*
X176470964Y-92887529D01*
X176465382Y-92895804D01*
X176363561Y-93116165D01*
X176298281Y-93349969D01*
X176271222Y-93591204D01*
X133403745Y-93591204D01*
X133404583Y-90495214D01*
X171751837Y-90495214D01*
X171752084Y-90500265D01*
X171752084Y-90500267D01*
X171763198Y-90727500D01*
X171763695Y-90737672D01*
X171814164Y-90975115D01*
X171815991Y-90979825D01*
X171815993Y-90979832D01*
X171892783Y-91177805D01*
X171901948Y-91201433D01*
X171904507Y-91205794D01*
X171904509Y-91205799D01*
X172014674Y-91393571D01*
X172024786Y-91410806D01*
X172179519Y-91597846D01*
X172362166Y-91757742D01*
X172366452Y-91760420D01*
X172366453Y-91760421D01*
X172563739Y-91883700D01*
X172563743Y-91883702D01*
X172568027Y-91886379D01*
X172572686Y-91888337D01*
X172572687Y-91888338D01*
X172788160Y-91978914D01*
X172791807Y-91980447D01*
X172819854Y-91988277D01*
X173171836Y-92069539D01*
X173469312Y-92138217D01*
X173469318Y-92138218D01*
X173471782Y-92138787D01*
X173651383Y-92165309D01*
X173770384Y-92163647D01*
X173889048Y-92161991D01*
X173889052Y-92161991D01*
X173894108Y-92161920D01*
X174133167Y-92119767D01*
X174137943Y-92118104D01*
X174137946Y-92118103D01*
X174238176Y-92083199D01*
X174362412Y-92039935D01*
X174575945Y-91924480D01*
X174768271Y-91776368D01*
X174771729Y-91772685D01*
X174771734Y-91772681D01*
X174930975Y-91603106D01*
X174934443Y-91599413D01*
X175061659Y-91410806D01*
X175067355Y-91402362D01*
X175067356Y-91402360D01*
X175070185Y-91398166D01*
X175172006Y-91177805D01*
X175237286Y-90944001D01*
X175264345Y-90702766D01*
X175264098Y-90697713D01*
X175252734Y-90465352D01*
X175252734Y-90465348D01*
X175252487Y-90460308D01*
X175251295Y-90454697D01*
X175203070Y-90227814D01*
X175203070Y-90227813D01*
X175202018Y-90222865D01*
X175200191Y-90218155D01*
X175200189Y-90218148D01*
X175116064Y-90001265D01*
X175114234Y-89996547D01*
X175111675Y-89992186D01*
X175111673Y-89992181D01*
X174993957Y-89791539D01*
X174993957Y-89791538D01*
X174991396Y-89787174D01*
X174963304Y-89753216D01*
X174839892Y-89604037D01*
X174839891Y-89604036D01*
X174836663Y-89600134D01*
X174654016Y-89440238D01*
X174626511Y-89423051D01*
X174452442Y-89314280D01*
X174452438Y-89314278D01*
X174448154Y-89311601D01*
X174224375Y-89217533D01*
X174196328Y-89209703D01*
X173844346Y-89128441D01*
X173546870Y-89059763D01*
X173546864Y-89059762D01*
X173544400Y-89059193D01*
X173364799Y-89032671D01*
X173245798Y-89034333D01*
X173127134Y-89035989D01*
X173127130Y-89035989D01*
X173122074Y-89036060D01*
X172883015Y-89078213D01*
X172878239Y-89079876D01*
X172878236Y-89079877D01*
X172778006Y-89114781D01*
X172653770Y-89158045D01*
X172440237Y-89273500D01*
X172247911Y-89421612D01*
X172244453Y-89425295D01*
X172244448Y-89425299D01*
X172093747Y-89585779D01*
X172081739Y-89598567D01*
X172078907Y-89602766D01*
X172078906Y-89602767D01*
X171951579Y-89791539D01*
X171945997Y-89799814D01*
X171844176Y-90020175D01*
X171842815Y-90025049D01*
X171842814Y-90025052D01*
X171788900Y-90218148D01*
X171778896Y-90253979D01*
X171778333Y-90259002D01*
X171778332Y-90259005D01*
X171775105Y-90287776D01*
X171751837Y-90495214D01*
X133404583Y-90495214D01*
X133405517Y-87045007D01*
X147916535Y-87045007D01*
X147916782Y-87050058D01*
X147916782Y-87050060D01*
X147926932Y-87257587D01*
X147928393Y-87287465D01*
X147929443Y-87292403D01*
X147929443Y-87292406D01*
X147971180Y-87488768D01*
X147978862Y-87524908D01*
X147980689Y-87529618D01*
X147980691Y-87529625D01*
X148057481Y-87727598D01*
X148066646Y-87751226D01*
X148069205Y-87755587D01*
X148069207Y-87755592D01*
X148184530Y-87952155D01*
X148189484Y-87960599D01*
X148192708Y-87964496D01*
X148192710Y-87964499D01*
X148340988Y-88143736D01*
X148344217Y-88147639D01*
X148526864Y-88307535D01*
X148531150Y-88310213D01*
X148531151Y-88310214D01*
X148728437Y-88433493D01*
X148728441Y-88433495D01*
X148732725Y-88436172D01*
X148737384Y-88438130D01*
X148737385Y-88438131D01*
X148952858Y-88528707D01*
X148956505Y-88530240D01*
X148984552Y-88538070D01*
X149336534Y-88619332D01*
X149634010Y-88688010D01*
X149634016Y-88688011D01*
X149636480Y-88688580D01*
X149816081Y-88715102D01*
X149935082Y-88713440D01*
X150053746Y-88711784D01*
X150053750Y-88711784D01*
X150058806Y-88711713D01*
X150297865Y-88669560D01*
X150302641Y-88667897D01*
X150302644Y-88667896D01*
X150402874Y-88632992D01*
X150527110Y-88589728D01*
X150538437Y-88583604D01*
X150635163Y-88531305D01*
X150740643Y-88474273D01*
X150932969Y-88326161D01*
X150936427Y-88322478D01*
X150936432Y-88322474D01*
X151095673Y-88152899D01*
X151099141Y-88149206D01*
X151149337Y-88074787D01*
X151232053Y-87952155D01*
X151232054Y-87952153D01*
X151234883Y-87947959D01*
X151336704Y-87727598D01*
X151345353Y-87696623D01*
X151400623Y-87498669D01*
X151400623Y-87498667D01*
X151401984Y-87493794D01*
X151410408Y-87418698D01*
X151428479Y-87257587D01*
X151429043Y-87252559D01*
X151421953Y-87107593D01*
X151417432Y-87015145D01*
X151417432Y-87015141D01*
X151417185Y-87010101D01*
X151404111Y-86948589D01*
X151367768Y-86777607D01*
X151367768Y-86777606D01*
X151366716Y-86772658D01*
X151364889Y-86767948D01*
X151364887Y-86767941D01*
X151342012Y-86708966D01*
X172432333Y-86708966D01*
X172451580Y-86953523D01*
X172508847Y-87192058D01*
X172510740Y-87196629D01*
X172510741Y-87196631D01*
X172535990Y-87257587D01*
X172602725Y-87418698D01*
X172667810Y-87524908D01*
X172726387Y-87620497D01*
X172730900Y-87627862D01*
X172734115Y-87631626D01*
X172734117Y-87631629D01*
X172828548Y-87742192D01*
X172890219Y-87814399D01*
X172893975Y-87817607D01*
X173061396Y-87960599D01*
X173076756Y-87973718D01*
X173080979Y-87976306D01*
X173080982Y-87976308D01*
X173110744Y-87994546D01*
X173285920Y-88101893D01*
X173396360Y-88147639D01*
X173507987Y-88193877D01*
X173507989Y-88193878D01*
X173512560Y-88195771D01*
X173595215Y-88215615D01*
X173746282Y-88251883D01*
X173746288Y-88251884D01*
X173751095Y-88253038D01*
X173995652Y-88272285D01*
X174206512Y-88255690D01*
X174229115Y-88256144D01*
X174231603Y-88256650D01*
X174236776Y-88256840D01*
X174236779Y-88256840D01*
X174466112Y-88265249D01*
X174466116Y-88265249D01*
X174471276Y-88265438D01*
X174476396Y-88264782D01*
X174476398Y-88264782D01*
X174704038Y-88235621D01*
X174704039Y-88235621D01*
X174709166Y-88234964D01*
X174714116Y-88233479D01*
X174933929Y-88167532D01*
X174933934Y-88167530D01*
X174938884Y-88166045D01*
X175154261Y-88060533D01*
X175158466Y-88057533D01*
X175158472Y-88057530D01*
X175251403Y-87991242D01*
X175314555Y-87946197D01*
X176841227Y-87946197D01*
X176861046Y-88261217D01*
X176920192Y-88571269D01*
X177017731Y-88871463D01*
X177019418Y-88875049D01*
X177019420Y-88875053D01*
X177150437Y-89153480D01*
X177150441Y-89153487D01*
X177152125Y-89157066D01*
X177321255Y-89423572D01*
X177522454Y-89666779D01*
X177752547Y-89882851D01*
X177755749Y-89885178D01*
X177755751Y-89885179D01*
X177766736Y-89893160D01*
X178007908Y-90068381D01*
X178011377Y-90070288D01*
X178011380Y-90070290D01*
X178281039Y-90218537D01*
X178284508Y-90220444D01*
X178288177Y-90221897D01*
X178288182Y-90221899D01*
X178574315Y-90335187D01*
X178577985Y-90336640D01*
X178883712Y-90415137D01*
X179196866Y-90454697D01*
X179512508Y-90454697D01*
X179825662Y-90415137D01*
X180131389Y-90336640D01*
X180135059Y-90335187D01*
X180421192Y-90221899D01*
X180421197Y-90221897D01*
X180424866Y-90220444D01*
X180428335Y-90218537D01*
X180697994Y-90070290D01*
X180697997Y-90070288D01*
X180701466Y-90068381D01*
X180942638Y-89893160D01*
X180953623Y-89885179D01*
X180953625Y-89885178D01*
X180956827Y-89882851D01*
X181186920Y-89666779D01*
X181388119Y-89423572D01*
X181557249Y-89157066D01*
X181558933Y-89153487D01*
X181558937Y-89153480D01*
X181606129Y-89053192D01*
X182841425Y-89053192D01*
X182841722Y-89058344D01*
X182841722Y-89058348D01*
X182846840Y-89147108D01*
X182855231Y-89292628D01*
X182856366Y-89297665D01*
X182856367Y-89297671D01*
X182906818Y-89521540D01*
X182907957Y-89526594D01*
X182998189Y-89748807D01*
X183123501Y-89953299D01*
X183280530Y-90134578D01*
X183465058Y-90287776D01*
X183672130Y-90408779D01*
X183794131Y-90455367D01*
X183816178Y-90463786D01*
X183837062Y-90474063D01*
X184003990Y-90576355D01*
X184148689Y-90636292D01*
X184226057Y-90668339D01*
X184226059Y-90668340D01*
X184230630Y-90670233D01*
X184313285Y-90690077D01*
X184464352Y-90726345D01*
X184464358Y-90726346D01*
X184469165Y-90727500D01*
X184713722Y-90746747D01*
X184958279Y-90727500D01*
X184963086Y-90726346D01*
X184963092Y-90726345D01*
X185114159Y-90690077D01*
X185196814Y-90670233D01*
X185201385Y-90668340D01*
X185201387Y-90668339D01*
X185278755Y-90636292D01*
X185423454Y-90576355D01*
X185564070Y-90490186D01*
X185628392Y-90450770D01*
X185628395Y-90450768D01*
X185632618Y-90448180D01*
X185672460Y-90414152D01*
X185815399Y-90292069D01*
X185819155Y-90288861D01*
X185871295Y-90227814D01*
X185975257Y-90106091D01*
X185975259Y-90106088D01*
X185978474Y-90102324D01*
X185998105Y-90070290D01*
X186031630Y-90015581D01*
X186106649Y-89893160D01*
X186200527Y-89666520D01*
X186254053Y-89443569D01*
X186256639Y-89432798D01*
X186256640Y-89432792D01*
X186257794Y-89427985D01*
X186277041Y-89183428D01*
X186257794Y-88938871D01*
X186200527Y-88700336D01*
X186195658Y-88688580D01*
X186145449Y-88567368D01*
X186106649Y-88473696D01*
X185983225Y-88272285D01*
X185981064Y-88268758D01*
X185981062Y-88268755D01*
X185978474Y-88264532D01*
X185971905Y-88256840D01*
X185822363Y-88081751D01*
X185819155Y-88077995D01*
X185700096Y-87976308D01*
X185636385Y-87921893D01*
X185636382Y-87921891D01*
X185632618Y-87918676D01*
X185628395Y-87916088D01*
X185628392Y-87916086D01*
X185526504Y-87853650D01*
X185423454Y-87790501D01*
X185259820Y-87722721D01*
X185201387Y-87698517D01*
X185201385Y-87698516D01*
X185196814Y-87696623D01*
X185114159Y-87676779D01*
X184963092Y-87640511D01*
X184963086Y-87640510D01*
X184958279Y-87639356D01*
X184713722Y-87620109D01*
X184495419Y-87637290D01*
X184463441Y-87635725D01*
X184442214Y-87631944D01*
X184362282Y-87630967D01*
X184207568Y-87629077D01*
X184207566Y-87629077D01*
X184202398Y-87629014D01*
X183965324Y-87665291D01*
X183737358Y-87739802D01*
X183524623Y-87850545D01*
X183520490Y-87853648D01*
X183520487Y-87853650D01*
X183336967Y-87991441D01*
X183332832Y-87994546D01*
X183329260Y-87998284D01*
X183181507Y-88152899D01*
X183167135Y-88167938D01*
X183164221Y-88172210D01*
X183164220Y-88172211D01*
X183100845Y-88265115D01*
X183031982Y-88366065D01*
X183029802Y-88370762D01*
X182938540Y-88567368D01*
X182931003Y-88583604D01*
X182866911Y-88814716D01*
X182841425Y-89053192D01*
X181606129Y-89053192D01*
X181689954Y-88875053D01*
X181689956Y-88875049D01*
X181691643Y-88871463D01*
X181789182Y-88571269D01*
X181848328Y-88261217D01*
X181868147Y-87946197D01*
X181848328Y-87631177D01*
X181789182Y-87321125D01*
X181691643Y-87020931D01*
X181689954Y-87017341D01*
X181558937Y-86738914D01*
X181558933Y-86738907D01*
X181557249Y-86735328D01*
X181388119Y-86468822D01*
X181186920Y-86225615D01*
X180956827Y-86009543D01*
X180948930Y-86003805D01*
X180856477Y-85936635D01*
X180701466Y-85824013D01*
X180695777Y-85820885D01*
X180428335Y-85673857D01*
X180428334Y-85673856D01*
X180424866Y-85671950D01*
X180421197Y-85670497D01*
X180421192Y-85670495D01*
X180135059Y-85557207D01*
X180135058Y-85557207D01*
X180131389Y-85555754D01*
X179825662Y-85477257D01*
X179512508Y-85437697D01*
X179196866Y-85437697D01*
X178883712Y-85477257D01*
X178577985Y-85555754D01*
X178574316Y-85557207D01*
X178574315Y-85557207D01*
X178288182Y-85670495D01*
X178288177Y-85670497D01*
X178284508Y-85671950D01*
X178281040Y-85673856D01*
X178281039Y-85673857D01*
X178013598Y-85820885D01*
X178007908Y-85824013D01*
X177852897Y-85936635D01*
X177760445Y-86003805D01*
X177752547Y-86009543D01*
X177522454Y-86225615D01*
X177321255Y-86468822D01*
X177152125Y-86735328D01*
X177150441Y-86738907D01*
X177150437Y-86738914D01*
X177019420Y-87017341D01*
X177017731Y-87020931D01*
X176920192Y-87321125D01*
X176861046Y-87631177D01*
X176841227Y-87946197D01*
X175314555Y-87946197D01*
X175349514Y-87921261D01*
X175519398Y-87751969D01*
X175526424Y-87742192D01*
X175656332Y-87561404D01*
X175659350Y-87557204D01*
X175672981Y-87529625D01*
X175763320Y-87346838D01*
X175763321Y-87346836D01*
X175765614Y-87342196D01*
X175835334Y-87112720D01*
X175866639Y-86874938D01*
X175868386Y-86803446D01*
X175861888Y-86724416D01*
X175849158Y-86569570D01*
X175849157Y-86569564D01*
X175848734Y-86564419D01*
X175819520Y-86448114D01*
X175791566Y-86336821D01*
X175791565Y-86336817D01*
X175790307Y-86331810D01*
X175760866Y-86264099D01*
X175752047Y-86193652D01*
X175782714Y-86129620D01*
X175843130Y-86092333D01*
X175904759Y-86091086D01*
X175910161Y-86092333D01*
X176174934Y-86153461D01*
X176174940Y-86153462D01*
X176177404Y-86154031D01*
X176357005Y-86180553D01*
X176476006Y-86178891D01*
X176594670Y-86177235D01*
X176594674Y-86177235D01*
X176599730Y-86177164D01*
X176838789Y-86135011D01*
X176843565Y-86133348D01*
X176843568Y-86133347D01*
X176964924Y-86091086D01*
X177068034Y-86055179D01*
X177113828Y-86030419D01*
X177277113Y-85942132D01*
X177281567Y-85939724D01*
X177473893Y-85791612D01*
X177477351Y-85787929D01*
X177477356Y-85787925D01*
X177636597Y-85618350D01*
X177640065Y-85614657D01*
X177658901Y-85586732D01*
X177772977Y-85417606D01*
X177772978Y-85417604D01*
X177775807Y-85413410D01*
X177877628Y-85193049D01*
X177885598Y-85164506D01*
X177941547Y-84964120D01*
X177941547Y-84964118D01*
X177942908Y-84959245D01*
X177944032Y-84949230D01*
X177969403Y-84723038D01*
X177969967Y-84718010D01*
X177969720Y-84712957D01*
X177958356Y-84480596D01*
X177958356Y-84480592D01*
X177958109Y-84475552D01*
X177949200Y-84433635D01*
X177908692Y-84243058D01*
X177908692Y-84243057D01*
X177907640Y-84238109D01*
X177905813Y-84233399D01*
X177905811Y-84233392D01*
X177821686Y-84016509D01*
X177819856Y-84011791D01*
X177817297Y-84007430D01*
X177817295Y-84007425D01*
X177699579Y-83806783D01*
X177699579Y-83806782D01*
X177697018Y-83802418D01*
X177687112Y-83790443D01*
X177545514Y-83619281D01*
X177545513Y-83619280D01*
X177542285Y-83615378D01*
X177369365Y-83463997D01*
X181216084Y-83463997D01*
X181216331Y-83469048D01*
X181216331Y-83469050D01*
X181226481Y-83676577D01*
X181227942Y-83706455D01*
X181228992Y-83711393D01*
X181228992Y-83711396D01*
X181262584Y-83869437D01*
X181278411Y-83943898D01*
X181280238Y-83948608D01*
X181280240Y-83948615D01*
X181357030Y-84146588D01*
X181366195Y-84170216D01*
X181368754Y-84174577D01*
X181368756Y-84174582D01*
X181478921Y-84362354D01*
X181489033Y-84379589D01*
X181492257Y-84383486D01*
X181492259Y-84383489D01*
X181572593Y-84480596D01*
X181643766Y-84566629D01*
X181826413Y-84726525D01*
X181830699Y-84729203D01*
X181830700Y-84729204D01*
X182027986Y-84852483D01*
X182027990Y-84852485D01*
X182032274Y-84855162D01*
X182036933Y-84857120D01*
X182036934Y-84857121D01*
X182252407Y-84947697D01*
X182256054Y-84949230D01*
X182284101Y-84957060D01*
X182611295Y-85032599D01*
X182933559Y-85107000D01*
X182933565Y-85107001D01*
X182936029Y-85107570D01*
X183115630Y-85134092D01*
X183234631Y-85132430D01*
X183353295Y-85130774D01*
X183353299Y-85130774D01*
X183358355Y-85130703D01*
X183597414Y-85088550D01*
X183602190Y-85086887D01*
X183602193Y-85086886D01*
X183703379Y-85051649D01*
X183826659Y-85008718D01*
X184040192Y-84893263D01*
X184232518Y-84745151D01*
X184235976Y-84741468D01*
X184235981Y-84741464D01*
X184395222Y-84571889D01*
X184398690Y-84568196D01*
X184525906Y-84379589D01*
X184531602Y-84371145D01*
X184531603Y-84371143D01*
X184534432Y-84366949D01*
X184636253Y-84146588D01*
X184642228Y-84125191D01*
X184700172Y-83917659D01*
X184700172Y-83917657D01*
X184701533Y-83912784D01*
X184728592Y-83671549D01*
X184724686Y-83591684D01*
X184716981Y-83434135D01*
X184716981Y-83434131D01*
X184716734Y-83429091D01*
X184695002Y-83326845D01*
X184667317Y-83196597D01*
X184667317Y-83196596D01*
X184666265Y-83191648D01*
X184664438Y-83186938D01*
X184664436Y-83186931D01*
X184580311Y-82970048D01*
X184578481Y-82965330D01*
X184575922Y-82960969D01*
X184575920Y-82960964D01*
X184458204Y-82760322D01*
X184458204Y-82760321D01*
X184455643Y-82755957D01*
X184451935Y-82751474D01*
X184304139Y-82572820D01*
X184304138Y-82572819D01*
X184300910Y-82568917D01*
X184118263Y-82409021D01*
X184113976Y-82406342D01*
X183916689Y-82283063D01*
X183916685Y-82283061D01*
X183912401Y-82280384D01*
X183884176Y-82268519D01*
X183692269Y-82187849D01*
X183692268Y-82187849D01*
X183688622Y-82186316D01*
X183660575Y-82178486D01*
X183308593Y-82097224D01*
X183011117Y-82028546D01*
X183011111Y-82028545D01*
X183008647Y-82027976D01*
X182829046Y-82001454D01*
X182710045Y-82003116D01*
X182591381Y-82004772D01*
X182591377Y-82004772D01*
X182586321Y-82004843D01*
X182347262Y-82046996D01*
X182342486Y-82048659D01*
X182342483Y-82048660D01*
X182242253Y-82083564D01*
X182118017Y-82126828D01*
X182113566Y-82129234D01*
X182113565Y-82129235D01*
X182058606Y-82158951D01*
X181904484Y-82242283D01*
X181712158Y-82390395D01*
X181708700Y-82394078D01*
X181708695Y-82394082D01*
X181579991Y-82531138D01*
X181545986Y-82567350D01*
X181543154Y-82571549D01*
X181543153Y-82571550D01*
X181415826Y-82760322D01*
X181410244Y-82768597D01*
X181308423Y-82988958D01*
X181307062Y-82993832D01*
X181307061Y-82993835D01*
X181244504Y-83217887D01*
X181243143Y-83222762D01*
X181242580Y-83227785D01*
X181242579Y-83227788D01*
X181228738Y-83351182D01*
X181216084Y-83463997D01*
X177369365Y-83463997D01*
X177359638Y-83455482D01*
X177335731Y-83440543D01*
X177158064Y-83329524D01*
X177158060Y-83329522D01*
X177153776Y-83326845D01*
X176990505Y-83258212D01*
X176933644Y-83234310D01*
X176933643Y-83234310D01*
X176929997Y-83232777D01*
X176901950Y-83224947D01*
X176461657Y-83123297D01*
X176252492Y-83075007D01*
X176252486Y-83075006D01*
X176250022Y-83074437D01*
X176070421Y-83047915D01*
X175951420Y-83049577D01*
X175832756Y-83051233D01*
X175832752Y-83051233D01*
X175827696Y-83051304D01*
X175588637Y-83093457D01*
X175583861Y-83095120D01*
X175583858Y-83095121D01*
X175525307Y-83115511D01*
X175359392Y-83173289D01*
X175145859Y-83288744D01*
X174953533Y-83436856D01*
X174950075Y-83440539D01*
X174950070Y-83440543D01*
X174871612Y-83524093D01*
X174787361Y-83613811D01*
X174784529Y-83618010D01*
X174784528Y-83618011D01*
X174657201Y-83806783D01*
X174651619Y-83815058D01*
X174549798Y-84035419D01*
X174548437Y-84040293D01*
X174548436Y-84040296D01*
X174507634Y-84186431D01*
X174484518Y-84269223D01*
X174483955Y-84274246D01*
X174483954Y-84274249D01*
X174472628Y-84375224D01*
X174457459Y-84510458D01*
X174457706Y-84515509D01*
X174457706Y-84515511D01*
X174467856Y-84723038D01*
X174469317Y-84752916D01*
X174470367Y-84757854D01*
X174470367Y-84757857D01*
X174498491Y-84890174D01*
X174519786Y-84990359D01*
X174521613Y-84995069D01*
X174521615Y-84995076D01*
X174536170Y-85032599D01*
X174542156Y-85103343D01*
X174508944Y-85166092D01*
X174447080Y-85200926D01*
X174389283Y-85200683D01*
X174245022Y-85166049D01*
X174245016Y-85166048D01*
X174240209Y-85164894D01*
X173995652Y-85145647D01*
X173751095Y-85164894D01*
X173746288Y-85166048D01*
X173746282Y-85166049D01*
X173614685Y-85197643D01*
X173512560Y-85222161D01*
X173507989Y-85224054D01*
X173507987Y-85224055D01*
X173502123Y-85226484D01*
X173285920Y-85316039D01*
X173180417Y-85380691D01*
X173080982Y-85441624D01*
X173080979Y-85441626D01*
X173076756Y-85444214D01*
X173072992Y-85447429D01*
X173072989Y-85447431D01*
X172910919Y-85585853D01*
X172890219Y-85603533D01*
X172887011Y-85607289D01*
X172757283Y-85759180D01*
X172730900Y-85790070D01*
X172728312Y-85794293D01*
X172728310Y-85794296D01*
X172710541Y-85823293D01*
X172602725Y-85999234D01*
X172564162Y-86092333D01*
X172529388Y-86176285D01*
X172508847Y-86225874D01*
X172451580Y-86464409D01*
X172432333Y-86708966D01*
X151342012Y-86708966D01*
X151280762Y-86551058D01*
X151278932Y-86546340D01*
X151276373Y-86541979D01*
X151276371Y-86541974D01*
X151158655Y-86341332D01*
X151158655Y-86341331D01*
X151156094Y-86336967D01*
X151095813Y-86264099D01*
X151004590Y-86153830D01*
X151004589Y-86153829D01*
X151001361Y-86149927D01*
X150818714Y-85990031D01*
X150794807Y-85975092D01*
X150617140Y-85864073D01*
X150617136Y-85864071D01*
X150612852Y-85861394D01*
X150454189Y-85794698D01*
X150392720Y-85768859D01*
X150392719Y-85768859D01*
X150389073Y-85767326D01*
X150361026Y-85759496D01*
X149975522Y-85670495D01*
X149711568Y-85609556D01*
X149711562Y-85609555D01*
X149709098Y-85608986D01*
X149529497Y-85582464D01*
X149410496Y-85584126D01*
X149291832Y-85585782D01*
X149291828Y-85585782D01*
X149286772Y-85585853D01*
X149047713Y-85628006D01*
X149042937Y-85629669D01*
X149042934Y-85629670D01*
X148942704Y-85664574D01*
X148818468Y-85707838D01*
X148604935Y-85823293D01*
X148412609Y-85971405D01*
X148409151Y-85975088D01*
X148409146Y-85975092D01*
X148374249Y-86012254D01*
X148246437Y-86148360D01*
X148243605Y-86152559D01*
X148243604Y-86152560D01*
X148116277Y-86341332D01*
X148110695Y-86349607D01*
X148008874Y-86569968D01*
X148007513Y-86574842D01*
X148007512Y-86574845D01*
X147962704Y-86735328D01*
X147943594Y-86803772D01*
X147916535Y-87045007D01*
X133405517Y-87045007D01*
X133406355Y-83949017D01*
X143397150Y-83949017D01*
X143397397Y-83954068D01*
X143397397Y-83954070D01*
X143408511Y-84181303D01*
X143409008Y-84191475D01*
X143410058Y-84196413D01*
X143410058Y-84196416D01*
X143418920Y-84238109D01*
X143459477Y-84428918D01*
X143461304Y-84433628D01*
X143461306Y-84433635D01*
X143538096Y-84631608D01*
X143547261Y-84655236D01*
X143549820Y-84659597D01*
X143549822Y-84659602D01*
X143601610Y-84747872D01*
X143670099Y-84864609D01*
X143673323Y-84868506D01*
X143673325Y-84868509D01*
X143770034Y-84985410D01*
X143824832Y-85051649D01*
X144007479Y-85211545D01*
X144011765Y-85214223D01*
X144011766Y-85214224D01*
X144209052Y-85337503D01*
X144209056Y-85337505D01*
X144213340Y-85340182D01*
X144217999Y-85342140D01*
X144218000Y-85342141D01*
X144376612Y-85408815D01*
X144437120Y-85434250D01*
X144465167Y-85442080D01*
X144817149Y-85523342D01*
X145114625Y-85592020D01*
X145114631Y-85592021D01*
X145117095Y-85592590D01*
X145296696Y-85619112D01*
X145415697Y-85617450D01*
X145534361Y-85615794D01*
X145534365Y-85615794D01*
X145539421Y-85615723D01*
X145778480Y-85573570D01*
X145783256Y-85571907D01*
X145783259Y-85571906D01*
X145883489Y-85537002D01*
X146007725Y-85493738D01*
X146038207Y-85477257D01*
X146115778Y-85435315D01*
X146221258Y-85378283D01*
X146413584Y-85230171D01*
X146417042Y-85226488D01*
X146417047Y-85226484D01*
X146576288Y-85056909D01*
X146579756Y-85053216D01*
X146622153Y-84990359D01*
X146712668Y-84856165D01*
X146712669Y-84856163D01*
X146715498Y-84851969D01*
X146817319Y-84631608D01*
X146836552Y-84562726D01*
X146881238Y-84402679D01*
X146881238Y-84402677D01*
X146882599Y-84397804D01*
X146885590Y-84371145D01*
X146909094Y-84161597D01*
X146909658Y-84156569D01*
X146908931Y-84141711D01*
X146898047Y-83919155D01*
X146898047Y-83919151D01*
X146897800Y-83914111D01*
X146896608Y-83908500D01*
X146848383Y-83681617D01*
X146848383Y-83681616D01*
X146847331Y-83676668D01*
X146845504Y-83671958D01*
X146845502Y-83671951D01*
X146761377Y-83455068D01*
X146759547Y-83450350D01*
X146756988Y-83445989D01*
X146756986Y-83445984D01*
X146639270Y-83245342D01*
X146639270Y-83245341D01*
X146636709Y-83240977D01*
X146629926Y-83232777D01*
X146485205Y-83057840D01*
X146485204Y-83057839D01*
X146481976Y-83053937D01*
X146299329Y-82894041D01*
X146271824Y-82876854D01*
X146097755Y-82768083D01*
X146097751Y-82768081D01*
X146093467Y-82765404D01*
X146081378Y-82760322D01*
X145873335Y-82672869D01*
X145873334Y-82672869D01*
X145869688Y-82671336D01*
X145841641Y-82663506D01*
X145425145Y-82567350D01*
X145192183Y-82513566D01*
X145192177Y-82513565D01*
X145189713Y-82512996D01*
X145010112Y-82486474D01*
X144891111Y-82488136D01*
X144772447Y-82489792D01*
X144772443Y-82489792D01*
X144767387Y-82489863D01*
X144528328Y-82532016D01*
X144523552Y-82533679D01*
X144523549Y-82533680D01*
X144437468Y-82563657D01*
X144299083Y-82611848D01*
X144085550Y-82727303D01*
X143893224Y-82875415D01*
X143889766Y-82879098D01*
X143889761Y-82879102D01*
X143786600Y-82988958D01*
X143727052Y-83052370D01*
X143724220Y-83056569D01*
X143724219Y-83056570D01*
X143596892Y-83245342D01*
X143591310Y-83253617D01*
X143489489Y-83473978D01*
X143488128Y-83478852D01*
X143488127Y-83478855D01*
X143434213Y-83671951D01*
X143424209Y-83707782D01*
X143423646Y-83712805D01*
X143423645Y-83712808D01*
X143407138Y-83859975D01*
X143397150Y-83949017D01*
X133406355Y-83949017D01*
X133407380Y-80162769D01*
X144077646Y-80162769D01*
X144096893Y-80407326D01*
X144154160Y-80645861D01*
X144248038Y-80872501D01*
X144330071Y-81006368D01*
X144371700Y-81074300D01*
X144376213Y-81081665D01*
X144379428Y-81085429D01*
X144379430Y-81085432D01*
X144473861Y-81195995D01*
X144535532Y-81268202D01*
X144539288Y-81271410D01*
X144694481Y-81403958D01*
X144722069Y-81427521D01*
X144726292Y-81430109D01*
X144726295Y-81430111D01*
X144756057Y-81448349D01*
X144931233Y-81555696D01*
X145075932Y-81615633D01*
X145153300Y-81647680D01*
X145153302Y-81647681D01*
X145157873Y-81649574D01*
X145240528Y-81669418D01*
X145391595Y-81705686D01*
X145391601Y-81705687D01*
X145396408Y-81706841D01*
X145640965Y-81726088D01*
X145851825Y-81709493D01*
X145874428Y-81709947D01*
X145876916Y-81710453D01*
X145882089Y-81710643D01*
X145882092Y-81710643D01*
X146111425Y-81719052D01*
X146111429Y-81719052D01*
X146116589Y-81719241D01*
X146121709Y-81718585D01*
X146121711Y-81718585D01*
X146349351Y-81689424D01*
X146349352Y-81689424D01*
X146354479Y-81688767D01*
X146359429Y-81687282D01*
X146579242Y-81621335D01*
X146579247Y-81621333D01*
X146584197Y-81619848D01*
X146799574Y-81514336D01*
X146803779Y-81511336D01*
X146803785Y-81511333D01*
X146896716Y-81445045D01*
X146959868Y-81400000D01*
X148486540Y-81400000D01*
X148506359Y-81715020D01*
X148565505Y-82025072D01*
X148663044Y-82325266D01*
X148664731Y-82328852D01*
X148664733Y-82328856D01*
X148795750Y-82607283D01*
X148795754Y-82607290D01*
X148797438Y-82610869D01*
X148966568Y-82877375D01*
X149167767Y-83120582D01*
X149397860Y-83336654D01*
X149401062Y-83338981D01*
X149401064Y-83338982D01*
X149412049Y-83346963D01*
X149653221Y-83522184D01*
X149656690Y-83524091D01*
X149656693Y-83524093D01*
X149926352Y-83672340D01*
X149929821Y-83674247D01*
X149933490Y-83675700D01*
X149933495Y-83675702D01*
X150219628Y-83788990D01*
X150223298Y-83790443D01*
X150529025Y-83868940D01*
X150842179Y-83908500D01*
X151157821Y-83908500D01*
X151470975Y-83868940D01*
X151776702Y-83790443D01*
X151780372Y-83788990D01*
X152066505Y-83675702D01*
X152066510Y-83675700D01*
X152070179Y-83674247D01*
X152073648Y-83672340D01*
X152343307Y-83524093D01*
X152343310Y-83524091D01*
X152346779Y-83522184D01*
X152587951Y-83346963D01*
X152598936Y-83338982D01*
X152598938Y-83338981D01*
X152602140Y-83336654D01*
X152832233Y-83120582D01*
X153033432Y-82877375D01*
X153202562Y-82610869D01*
X153204246Y-82607290D01*
X153204250Y-82607283D01*
X153251442Y-82506995D01*
X154486738Y-82506995D01*
X154487035Y-82512147D01*
X154487035Y-82512151D01*
X154492153Y-82600911D01*
X154500544Y-82746431D01*
X154501679Y-82751468D01*
X154501680Y-82751474D01*
X154550938Y-82970048D01*
X154553270Y-82980397D01*
X154643502Y-83202610D01*
X154768814Y-83407102D01*
X154772198Y-83411008D01*
X154772199Y-83411010D01*
X154802495Y-83445984D01*
X154925843Y-83588381D01*
X155110371Y-83741579D01*
X155317443Y-83862582D01*
X155439444Y-83909170D01*
X155461491Y-83917589D01*
X155482375Y-83927866D01*
X155508686Y-83943989D01*
X155649303Y-84030158D01*
X155794002Y-84090095D01*
X155871370Y-84122142D01*
X155871372Y-84122143D01*
X155875943Y-84124036D01*
X155949565Y-84141711D01*
X156109665Y-84180148D01*
X156109671Y-84180149D01*
X156114478Y-84181303D01*
X156359035Y-84200550D01*
X156603592Y-84181303D01*
X156608399Y-84180149D01*
X156608405Y-84180148D01*
X156768505Y-84141711D01*
X156842127Y-84124036D01*
X156846698Y-84122143D01*
X156846700Y-84122142D01*
X156924068Y-84090095D01*
X157068767Y-84030158D01*
X157209383Y-83943989D01*
X157273705Y-83904573D01*
X157273708Y-83904571D01*
X157277931Y-83901983D01*
X157317773Y-83867955D01*
X157460712Y-83745872D01*
X157464468Y-83742664D01*
X157516608Y-83681617D01*
X157620570Y-83559894D01*
X157620572Y-83559891D01*
X157623787Y-83556127D01*
X157643418Y-83524093D01*
X157685462Y-83455482D01*
X157751962Y-83346963D01*
X157845840Y-83120323D01*
X157881918Y-82970048D01*
X157901952Y-82886601D01*
X157901953Y-82886595D01*
X157903107Y-82881788D01*
X157922354Y-82637231D01*
X157903107Y-82392674D01*
X157845840Y-82154139D01*
X157835525Y-82129235D01*
X157793581Y-82027976D01*
X157751962Y-81927499D01*
X157628538Y-81726088D01*
X157626377Y-81722561D01*
X157626375Y-81722558D01*
X157623787Y-81718335D01*
X157617218Y-81710643D01*
X157467676Y-81535554D01*
X157464468Y-81531798D01*
X157345409Y-81430111D01*
X157281698Y-81375696D01*
X157281695Y-81375694D01*
X157277931Y-81372479D01*
X157273708Y-81369891D01*
X157273705Y-81369889D01*
X157171817Y-81307453D01*
X157068767Y-81244304D01*
X156924068Y-81184367D01*
X156846700Y-81152320D01*
X156846698Y-81152319D01*
X156842127Y-81150426D01*
X156759472Y-81130582D01*
X156608405Y-81094314D01*
X156608399Y-81094313D01*
X156603592Y-81093159D01*
X156359035Y-81073912D01*
X156140732Y-81091093D01*
X156108754Y-81089528D01*
X156087527Y-81085747D01*
X156007595Y-81084770D01*
X155852881Y-81082880D01*
X155852879Y-81082880D01*
X155847711Y-81082817D01*
X155610637Y-81119094D01*
X155382671Y-81193605D01*
X155169936Y-81304348D01*
X155165803Y-81307451D01*
X155165800Y-81307453D01*
X154982280Y-81445244D01*
X154978145Y-81448349D01*
X154812448Y-81621741D01*
X154809534Y-81626013D01*
X154809533Y-81626014D01*
X154746158Y-81718918D01*
X154677295Y-81819868D01*
X154675115Y-81824565D01*
X154583853Y-82021171D01*
X154576316Y-82037407D01*
X154535316Y-82185251D01*
X154520168Y-82239875D01*
X154512224Y-82268519D01*
X154486738Y-82506995D01*
X153251442Y-82506995D01*
X153335267Y-82328856D01*
X153335269Y-82328852D01*
X153336956Y-82325266D01*
X153434495Y-82025072D01*
X153493641Y-81715020D01*
X153513460Y-81400000D01*
X153493641Y-81084980D01*
X153434495Y-80774928D01*
X153336956Y-80474734D01*
X153335267Y-80471144D01*
X153204250Y-80192717D01*
X153204246Y-80192710D01*
X153202562Y-80189131D01*
X153033432Y-79922625D01*
X152832233Y-79679418D01*
X152602140Y-79463346D01*
X152594243Y-79457608D01*
X152501790Y-79390438D01*
X152346779Y-79277816D01*
X152292725Y-79248099D01*
X152073648Y-79127660D01*
X152073647Y-79127659D01*
X152070179Y-79125753D01*
X152066510Y-79124300D01*
X152066505Y-79124298D01*
X151780372Y-79011010D01*
X151780371Y-79011010D01*
X151776702Y-79009557D01*
X151470975Y-78931060D01*
X151157821Y-78891500D01*
X150842179Y-78891500D01*
X150529025Y-78931060D01*
X150223298Y-79009557D01*
X150219629Y-79011010D01*
X150219628Y-79011010D01*
X149933495Y-79124298D01*
X149933490Y-79124300D01*
X149929821Y-79125753D01*
X149926353Y-79127659D01*
X149926352Y-79127660D01*
X149707276Y-79248099D01*
X149653221Y-79277816D01*
X149498210Y-79390438D01*
X149405758Y-79457608D01*
X149397860Y-79463346D01*
X149167767Y-79679418D01*
X148966568Y-79922625D01*
X148797438Y-80189131D01*
X148795754Y-80192710D01*
X148795750Y-80192717D01*
X148664733Y-80471144D01*
X148663044Y-80474734D01*
X148565505Y-80774928D01*
X148506359Y-81084980D01*
X148486540Y-81400000D01*
X146959868Y-81400000D01*
X146994827Y-81375064D01*
X147164711Y-81205772D01*
X147171737Y-81195995D01*
X147301645Y-81015207D01*
X147304663Y-81011007D01*
X147375377Y-80867930D01*
X147408633Y-80800641D01*
X147408634Y-80800639D01*
X147410927Y-80795999D01*
X147480647Y-80566523D01*
X147511952Y-80328741D01*
X147513699Y-80257249D01*
X147507201Y-80178219D01*
X147494471Y-80023373D01*
X147494470Y-80023367D01*
X147494047Y-80018222D01*
X147435620Y-79785613D01*
X147406179Y-79717902D01*
X147397360Y-79647455D01*
X147428027Y-79583423D01*
X147488443Y-79546136D01*
X147550072Y-79544889D01*
X147555474Y-79546136D01*
X147820247Y-79607264D01*
X147820253Y-79607265D01*
X147822717Y-79607834D01*
X148002318Y-79634356D01*
X148121319Y-79632694D01*
X148239983Y-79631038D01*
X148239987Y-79631038D01*
X148245043Y-79630967D01*
X148484102Y-79588814D01*
X148488878Y-79587151D01*
X148488881Y-79587150D01*
X148610237Y-79544889D01*
X148713347Y-79508982D01*
X148759141Y-79484222D01*
X148922426Y-79395935D01*
X148926880Y-79393527D01*
X149119206Y-79245415D01*
X149122664Y-79241732D01*
X149122669Y-79241728D01*
X149281910Y-79072153D01*
X149285378Y-79068460D01*
X149404403Y-78891997D01*
X149418290Y-78871409D01*
X149418291Y-78871407D01*
X149421120Y-78867213D01*
X149522941Y-78646852D01*
X149530911Y-78618309D01*
X149586860Y-78417923D01*
X149586860Y-78417921D01*
X149588221Y-78413048D01*
X149589345Y-78403033D01*
X149614716Y-78176841D01*
X149615280Y-78171813D01*
X149607953Y-78021999D01*
X149603669Y-77934399D01*
X149603669Y-77934395D01*
X149603422Y-77929355D01*
X149552953Y-77691912D01*
X149551126Y-77687202D01*
X149551124Y-77687195D01*
X149466999Y-77470312D01*
X149465169Y-77465594D01*
X149462610Y-77461233D01*
X149462608Y-77461228D01*
X149344892Y-77260586D01*
X149344892Y-77260585D01*
X149342331Y-77256221D01*
X149262944Y-77160258D01*
X149190827Y-77073084D01*
X149190826Y-77073083D01*
X149187598Y-77069181D01*
X149014678Y-76917800D01*
X152861397Y-76917800D01*
X152861644Y-76922851D01*
X152861644Y-76922853D01*
X152871794Y-77130380D01*
X152873255Y-77160258D01*
X152923724Y-77397701D01*
X152925551Y-77402411D01*
X152925553Y-77402418D01*
X153002343Y-77600391D01*
X153011508Y-77624019D01*
X153014067Y-77628380D01*
X153014069Y-77628385D01*
X153124234Y-77816157D01*
X153134346Y-77833392D01*
X153137570Y-77837289D01*
X153137572Y-77837292D01*
X153217906Y-77934399D01*
X153289079Y-78020432D01*
X153471726Y-78180328D01*
X153476012Y-78183006D01*
X153476013Y-78183007D01*
X153673299Y-78306286D01*
X153673303Y-78306288D01*
X153677587Y-78308965D01*
X153682246Y-78310923D01*
X153682247Y-78310924D01*
X153897720Y-78401500D01*
X153901367Y-78403033D01*
X153929414Y-78410863D01*
X154256608Y-78486402D01*
X154578872Y-78560803D01*
X154578878Y-78560804D01*
X154581342Y-78561373D01*
X154760943Y-78587895D01*
X154879944Y-78586233D01*
X154998608Y-78584577D01*
X154998612Y-78584577D01*
X155003668Y-78584506D01*
X155242727Y-78542353D01*
X155247503Y-78540690D01*
X155247506Y-78540689D01*
X155403395Y-78486402D01*
X155471972Y-78462521D01*
X155685505Y-78347066D01*
X155877831Y-78198954D01*
X155881289Y-78195271D01*
X155881294Y-78195267D01*
X156040535Y-78025692D01*
X156044003Y-78021999D01*
X156171219Y-77833392D01*
X156176915Y-77824948D01*
X156176916Y-77824946D01*
X156179745Y-77820752D01*
X156281566Y-77600391D01*
X156312606Y-77489222D01*
X156345485Y-77371462D01*
X156345485Y-77371460D01*
X156346846Y-77366587D01*
X156357293Y-77273456D01*
X156373341Y-77130380D01*
X156373905Y-77125352D01*
X156370901Y-77063921D01*
X156362294Y-76887938D01*
X156362294Y-76887934D01*
X156362047Y-76882894D01*
X156340315Y-76780648D01*
X156312630Y-76650400D01*
X156312630Y-76650399D01*
X156311578Y-76645451D01*
X156309751Y-76640741D01*
X156309749Y-76640734D01*
X156225624Y-76423851D01*
X156223794Y-76419133D01*
X156221235Y-76414772D01*
X156221233Y-76414767D01*
X156103517Y-76214125D01*
X156103517Y-76214124D01*
X156100956Y-76209760D01*
X155946223Y-76022720D01*
X155763576Y-75862824D01*
X155739669Y-75847885D01*
X155562002Y-75736866D01*
X155561998Y-75736864D01*
X155557714Y-75734187D01*
X155333935Y-75640119D01*
X155305888Y-75632289D01*
X154953906Y-75551027D01*
X154656430Y-75482349D01*
X154656424Y-75482348D01*
X154653960Y-75481779D01*
X154474359Y-75455257D01*
X154355358Y-75456919D01*
X154236694Y-75458575D01*
X154236690Y-75458575D01*
X154231634Y-75458646D01*
X153992575Y-75500799D01*
X153987799Y-75502462D01*
X153987796Y-75502463D01*
X153887566Y-75537367D01*
X153763330Y-75580631D01*
X153549797Y-75696086D01*
X153357471Y-75844198D01*
X153354013Y-75847881D01*
X153354008Y-75847885D01*
X153203307Y-76008365D01*
X153191299Y-76021153D01*
X153188467Y-76025352D01*
X153188466Y-76025353D01*
X153061139Y-76214125D01*
X153055557Y-76222400D01*
X152953736Y-76442761D01*
X152952375Y-76447635D01*
X152952374Y-76447638D01*
X152929710Y-76528810D01*
X152888456Y-76676565D01*
X152887893Y-76681588D01*
X152887892Y-76681591D01*
X152881325Y-76740139D01*
X152861397Y-76917800D01*
X149014678Y-76917800D01*
X149004951Y-76909285D01*
X148981044Y-76894346D01*
X148803377Y-76783327D01*
X148803373Y-76783325D01*
X148799089Y-76780648D01*
X148575310Y-76686580D01*
X148547263Y-76678750D01*
X148195281Y-76597488D01*
X147897805Y-76528810D01*
X147897799Y-76528809D01*
X147895335Y-76528240D01*
X147715734Y-76501718D01*
X147596733Y-76503380D01*
X147478069Y-76505036D01*
X147478065Y-76505036D01*
X147473009Y-76505107D01*
X147233950Y-76547260D01*
X147229174Y-76548923D01*
X147229171Y-76548924D01*
X147128941Y-76583828D01*
X147004705Y-76627092D01*
X146791172Y-76742547D01*
X146598846Y-76890659D01*
X146595388Y-76894342D01*
X146595383Y-76894346D01*
X146444682Y-77054826D01*
X146432674Y-77067614D01*
X146429842Y-77071813D01*
X146429841Y-77071814D01*
X146302514Y-77260586D01*
X146296932Y-77268861D01*
X146195111Y-77489222D01*
X146193750Y-77494096D01*
X146193749Y-77494099D01*
X146139835Y-77687195D01*
X146129831Y-77723026D01*
X146129268Y-77728049D01*
X146129267Y-77728052D01*
X146117941Y-77829027D01*
X146102772Y-77964261D01*
X146103019Y-77969312D01*
X146103019Y-77969314D01*
X146113169Y-78176841D01*
X146114630Y-78206719D01*
X146115680Y-78211657D01*
X146115680Y-78211660D01*
X146136779Y-78310924D01*
X146165099Y-78444162D01*
X146166926Y-78448872D01*
X146166928Y-78448879D01*
X146181483Y-78486402D01*
X146187469Y-78557146D01*
X146154257Y-78619895D01*
X146092393Y-78654729D01*
X146034596Y-78654486D01*
X145890335Y-78619852D01*
X145890329Y-78619851D01*
X145885522Y-78618697D01*
X145640965Y-78599450D01*
X145396408Y-78618697D01*
X145391601Y-78619851D01*
X145391595Y-78619852D01*
X145259998Y-78651446D01*
X145157873Y-78675964D01*
X145153302Y-78677857D01*
X145153300Y-78677858D01*
X145075932Y-78709905D01*
X144931233Y-78769842D01*
X144795480Y-78853031D01*
X144726295Y-78895427D01*
X144726292Y-78895429D01*
X144722069Y-78898017D01*
X144718305Y-78901232D01*
X144718302Y-78901234D01*
X144589772Y-79011010D01*
X144535532Y-79057336D01*
X144532324Y-79061092D01*
X144478341Y-79124298D01*
X144376213Y-79243873D01*
X144373625Y-79248096D01*
X144373623Y-79248099D01*
X144355413Y-79277816D01*
X144248038Y-79453037D01*
X144209475Y-79546136D01*
X144174701Y-79630088D01*
X144154160Y-79679677D01*
X144096893Y-79918212D01*
X144077646Y-80162769D01*
X133407380Y-80162769D01*
X133413542Y-57400000D01*
X136886411Y-57400000D01*
X136906754Y-57788176D01*
X136967562Y-58172099D01*
X137068167Y-58547562D01*
X137207468Y-58910453D01*
X137383938Y-59256794D01*
X137595643Y-59582793D01*
X137840266Y-59884876D01*
X138115124Y-60159734D01*
X138417207Y-60404357D01*
X138743205Y-60616062D01*
X138746139Y-60617557D01*
X138746146Y-60617561D01*
X139086607Y-60791034D01*
X139089547Y-60792532D01*
X139452438Y-60931833D01*
X139827901Y-61032438D01*
X140031793Y-61064732D01*
X140208576Y-61092732D01*
X140208584Y-61092733D01*
X140211824Y-61093246D01*
X140600000Y-61113589D01*
X140988176Y-61093246D01*
X140991416Y-61092733D01*
X140991424Y-61092732D01*
X141168207Y-61064732D01*
X141372099Y-61032438D01*
X141747562Y-60931833D01*
X142110453Y-60792532D01*
X142113393Y-60791034D01*
X142453854Y-60617561D01*
X142453861Y-60617557D01*
X142456795Y-60616062D01*
X142782793Y-60404357D01*
X143084876Y-60159734D01*
X143359734Y-59884876D01*
X143604357Y-59582793D01*
X143816062Y-59256794D01*
X143992532Y-58910453D01*
X144131833Y-58547562D01*
X144232438Y-58172099D01*
X144293246Y-57788176D01*
X144313589Y-57400000D01*
X144293246Y-57011824D01*
X144232438Y-56627901D01*
X144131833Y-56252438D01*
X143992532Y-55889547D01*
X143816062Y-55543206D01*
X143604357Y-55217207D01*
X143388774Y-54950985D01*
X143361809Y-54917686D01*
X143361806Y-54917682D01*
X143359734Y-54915124D01*
X143084876Y-54640266D01*
X142989270Y-54562845D01*
X142785355Y-54397718D01*
X142782793Y-54395643D01*
X142780029Y-54393848D01*
X142459564Y-54185736D01*
X142459561Y-54185734D01*
X142456795Y-54183938D01*
X142453861Y-54182443D01*
X142453854Y-54182439D01*
X142113393Y-54008966D01*
X142110453Y-54007468D01*
X141747562Y-53868167D01*
X141372099Y-53767562D01*
X141168207Y-53735268D01*
X140991424Y-53707268D01*
X140991416Y-53707267D01*
X140988176Y-53706754D01*
X140600000Y-53686411D01*
X140211824Y-53706754D01*
X140208584Y-53707267D01*
X140208576Y-53707268D01*
X140031793Y-53735268D01*
X139827901Y-53767562D01*
X139452438Y-53868167D01*
X139089547Y-54007468D01*
X139086607Y-54008966D01*
X138746147Y-54182439D01*
X138746140Y-54182443D01*
X138743206Y-54183938D01*
X138740440Y-54185734D01*
X138740437Y-54185736D01*
X138419971Y-54393848D01*
X138417207Y-54395643D01*
X138414645Y-54397718D01*
X138210731Y-54562845D01*
X138115124Y-54640266D01*
X137840266Y-54915124D01*
X137838194Y-54917682D01*
X137838191Y-54917686D01*
X137811226Y-54950985D01*
X137595643Y-55217207D01*
X137383938Y-55543206D01*
X137207468Y-55889547D01*
X137068167Y-56252438D01*
X136967562Y-56627901D01*
X136906754Y-57011824D01*
X136886411Y-57400000D01*
X133413542Y-57400000D01*
X133414202Y-54960717D01*
X133415703Y-54941368D01*
X133418021Y-54926487D01*
X133418021Y-54926478D01*
X133419402Y-54917610D01*
X133416959Y-54898929D01*
X133416068Y-54875997D01*
X133428423Y-54640266D01*
X133432480Y-54562844D01*
X133433858Y-54549728D01*
X133441146Y-54503713D01*
X133487418Y-54211559D01*
X133490160Y-54198660D01*
X133518378Y-54093348D01*
X133578775Y-53867943D01*
X133582851Y-53855402D01*
X133616242Y-53768417D01*
X133705545Y-53535774D01*
X133710909Y-53523725D01*
X133866348Y-53218658D01*
X133872942Y-53207237D01*
X134059419Y-52920088D01*
X134067167Y-52909425D01*
X134068043Y-52908344D01*
X134282630Y-52643351D01*
X134291455Y-52633550D01*
X134533550Y-52391455D01*
X134543351Y-52382630D01*
X134551027Y-52376414D01*
X134809428Y-52167165D01*
X134820088Y-52159419D01*
X135107242Y-51972939D01*
X135118658Y-51966348D01*
X135423725Y-51810909D01*
X135435774Y-51805545D01*
X135755402Y-51682851D01*
X135767945Y-51678775D01*
X135791144Y-51672559D01*
X136098660Y-51590160D01*
X136111560Y-51587418D01*
X136449728Y-51533858D01*
X136462844Y-51532480D01*
X136768674Y-51516452D01*
X136794652Y-51517780D01*
X136796196Y-51518021D01*
X136796200Y-51518021D01*
X136805070Y-51519402D01*
X136836626Y-51515276D01*
X136852943Y-51514212D01*
X188116171Y-51509216D01*
X200550685Y-51508004D01*
X200570082Y-51509504D01*
G37*
%TD.AperFunction*%
M02*
